<?xml version="1.0" encoding="utf-8"?>
<!-- Generator: Adobe Illustrator 24.1.2, SVG Export Plug-In . SVG Version: 6.00 Build 0)  -->
<svg version="1.1" id="Layer_1" xmlns="http://www.w3.org/2000/svg" xmlns:xlink="http://www.w3.org/1999/xlink" x="0px" y="0px"
	 viewBox="0 0 1000 1000" style="enable-background:new 0 0 1000 1000;" xml:space="preserve">
<style type="text/css">
	.st0{fill:#DDF1F6;}
	.st1{fill:#8CBFCB;}
	.st2{fill:#F04F48;}
	.st3{fill:#FFFFFF;}
	.st4{fill:#4F1A0F;}
	.st5{fill:#FABCB6;}
	.st6{fill:#25565F;}
	.st7{fill:#1D3A3E;}
	.st8{fill:#F3796A;}
	.st9{fill:#F7A4A0;}
	.st10{fill:#49ACB5;}
</style>
<g>
	<path class="st0" d="M398.93,329.24l16.19-1.82c1.35-0.14,2.66,0.49,3.4,1.63c0.94,1.46,1.94,2.88,3.01,4.28
		c1.99,2.6,4.12,4.99,6.41,7.16c1.07,1.02,1.43,2.56,0.88,3.92l-6.21,15.86c-0.68,1.69,0.07,3.62,1.72,4.44l13.95,6.91
		c1.58,0.78,3.48,0.24,4.44-1.23l8.44-13.22c0.79-1.3,2.37-1.91,3.89-1.5c6.41,1.69,13.08,2.36,19.75,1.97
		c1.61-0.09,3.11,0.95,3.59,2.49l2.86,9.1c0.56,1.72,2.32,2.79,4.12,2.44l15.15-3.06c0.31-0.06,0.6-0.15,0.88-0.29
		c1.31-0.63,2.12-2.05,1.94-3.55l-1.35-12.1l-0.33-2.95c2.52-1.42,4.99-3.05,7.35-4.85c3.17-2.44,6.07-5.12,8.62-7.98
		c0.98-1.09,2.52-1.48,3.88-0.94l12.77,5.02c1.75,0.67,3.73-0.08,4.54-1.76l5.29-10.67l1.51-3.06c0.83-1.67,0.27-3.71-1.3-4.7
		l-11.04-7.06c-1.29-0.8-1.92-2.33-1.56-3.78c1.03-4.35,1.6-8.81,1.68-13.26c0.04-0.39,0.03-0.74,0.03-1.12
		c-0.01-0.13,0.01-0.25,0.02-0.38c0.14-1.43,1.13-2.62,2.51-3.04l14.77-4.68c0.17-0.04,0.33-0.12,0.48-0.19
		c1.44-0.7,2.26-2.32,1.95-3.92l-3.03-15.11c-0.37-1.82-2.06-3.06-3.92-2.86l-16.89,1.91c-1.43,0.18-2.81-0.56-3.49-1.83
		c-1.52-2.78-3.29-5.48-5.29-8.09c-1.06-1.38-2.17-2.71-3.32-3.98c-0.93-1.04-1.2-2.5-0.69-3.79l5.96-15.25
		c0.66-1.68-0.07-3.6-1.7-4.41l-13.81-6.82c-1.67-0.83-3.69-0.28-4.71,1.31l-6.68,10.46c-0.9,1.4-2.61,2-4.18,1.48
		c-6.14-2.13-12.57-3.27-19.06-3.42c-1.53-0.01-2.9-1.03-3.36-2.51l-4.21-13.31c-0.56-1.79-2.39-2.85-4.22-2.5l-15.06,3.01
		c-1.81,0.36-3.04,2.06-2.82,3.86l0.07,0.71l1.57,14.06c0.17,1.51-0.6,2.93-1.95,3.62l-0.01,0.01c-3.23,1.67-6.35,3.64-9.34,5.94
		c-1.59,1.22-3.1,2.51-4.55,3.85c-1,0.95-2.44,1.23-3.72,0.73l-12.96-5.09c-1.77-0.7-3.79,0.08-4.62,1.78l-6.8,13.75
		c-0.19,0.39-0.3,0.81-0.35,1.21c-0.14,1.31,0.47,2.66,1.63,3.41l8.84,5.62c1.07,0.7,1.7,1.92,1.65,3.17
		c-0.02,0.33-0.07,0.66-0.18,0.99c-2.69,7.89-3.76,16.22-3.18,24.54c0.12,1.41-0.66,2.73-1.89,3.38c-0.18,0.09-0.36,0.17-0.56,0.23
		l-11.96,3.78c-1.73,0.55-2.78,2.31-2.43,4.11l0.07,0.35l2.94,14.73C395.34,328.2,397.05,329.44,398.93,329.24z M502.54,283.25
		c0.93,2.32,1.67,4.81,2.2,7.48c0.99,5.09-0.04,13.12-2.34,17.78c-0.24,0.5-0.5,0.99-0.75,1.47c-15.85,29.42-57.38,23.57-64.23-9.62
		c-0.89-4.34-0.33-10.66,1.22-15.5c0.38-1.12,0.78-2.17,1.24-3.06c2.12-4.22,4.74-7.76,7.73-10.64
		C464.67,254.77,493.17,260.14,502.54,283.25z"/>
	<path class="st0" d="M913.16,272.51c-15.55-31.34-69.38-9.88-69.38-9.88s-26.43,65.49-37.2,69.07
		c-10.77,3.57,11.67-60.41,11.67-60.41c-21.8,2.18-71.1,39.22-71.1,39.22s16.88,66.93,5.57,67.74
		c-11.31,0.81-11.92-60.02-11.92-60.02c-19.46,10.32-33.99,38.31-33.99,38.31c-16.34,44.12,41.17,62.82,41.17,62.82
		s5.35,23.32-3.79,53.11l0,0c0,0-2.28,5.62-3.93,14.72l5.64-1.12c0.16-1.6,0.38-3.17,0.66-4.68c0-0.01,0-0.02,0.01-0.03
		c0-0.02,0.01-0.04,0.01-0.07c0.21-0.95,0.52-2.3,0.91-3.95c0,0,0,0,0-0.01c0,0,0,0,0-0.01c1.05-3.72,1.72-6.44,2.1-8.39
		c0-0.01,0-0.01,0-0.02c3.06-11.62,7.76-26.9,12.15-30.78c0,0-0.8-0.75-1.72-2.35c0.55,0.75,1.12,1.53,1.72,2.35
		c13.77,18.78,62.75,12.63,88.56,1.77c25.81-10.86,12.57-16.12-4.36-25.56c-16.94-9.44-46.65-0.16-56.58-3.21
		c-9.93-3.05,2.22-10.48,20.43-12.67c18.21-2.18,30.75,13.97,60.27,10.98c29.53-3,40.78-61.89,40.78-61.89
		c-18.77,10.18-56.84,6.27-59.59-0.35c-2.75-6.63,50.51-16.49,58.38-20.2C917.51,323.28,928.71,303.85,913.16,272.51z"/>
	<path class="st0" d="M25,513.36c-6.33-34.4,49.62-49.48,49.62-49.48s60.41,36.59,71.17,33c10.76-3.59-45.54-41.37-45.54-41.37
		c18.76-11.32,80.42-11.2,80.42-11.2s26.59,63.7,36.13,57.57c9.54-6.13-26.42-55.2-26.42-55.2c21.77-3.4,50.16,10.3,50.16,10.3
		c39.52,25.54,4.69,74.96,4.69,74.96s9.69,21.88,34.86,40.24l0,0c0,0,5.19,3.13,11.97,9.43l-5.19,2.48
		c-1.09-1.19-2.2-2.31-3.34-3.35c0-0.01-0.01-0.02-0.02-0.02c-0.02-0.02-0.03-0.03-0.05-0.04c-0.74-0.63-1.8-1.53-3.1-2.61
		c0,0,0,0-0.01,0c0,0,0,0-0.01-0.01c-3.07-2.34-5.24-4.12-6.71-5.46c-0.01,0-0.01-0.01-0.01-0.01
		c-9.41-7.47-22.33-16.89-28.17-17.37c0,0,0.19-1.08-0.03-2.91c0.01,0.93,0.02,1.9,0.03,2.91c0.23,23.29-42.67,47.72-69.84,54.48
		c-27.17,6.77-19.73-5.37-11.83-23.08c7.9-17.7,37.25-28.08,43.37-36.47c6.12-8.39-8.06-7.06-23.95,2.1
		c-15.89,9.16-16.24,29.61-41.68,44.9c-25.43,15.29-69.73-25.11-69.73-25.11c21.13-3.1,49.27-29.04,47.5-35.99
		c-1.77-6.95-50.32,17.07-58.85,18.81C51.94,556.61,31.33,547.76,25,513.36z"/>
	<path class="st0" d="M946.35,734.17c27.53-21.58-4.39-69.94-4.39-69.94s-69.49-12.6-75.17-22.42c-5.68-9.82,61.52-0.83,61.52-0.83
		c-6.56-20.9-52.83-61.66-52.83-61.66s-62.11,30.1-65.2,19.19c-3.09-10.91,56.36-23.85,56.36-23.85
		c-14.05-16.97-44.4-25.51-44.4-25.51c-46.52-7.05-53.17,53.05-53.17,53.05s-21.75,9.97-52.77,7.06l0,0c0,0-5.96-1.1-15.21-0.86
		l2.24,5.3c1.6-0.17,3.18-0.27,4.72-0.3c0.01,0,0.02,0,0.03,0c0.02,0,0.04,0,0.07,0c0.97,0.02,2.36,0.05,4.05,0.09c0,0,0,0,0.01,0
		c0,0,0.01,0,0.01,0c3.85,0.28,6.66,0.38,8.64,0.36c0.01,0,0.01,0,0.02,0c12,0.64,27.92,2.14,32.61,5.65c0,0,0.58-0.94,1.95-2.16
		c-0.62,0.69-1.27,1.41-1.95,2.16c-15.6,17.29,0.35,64.01,16.23,87.08c15.87,23.07,18.34,9.04,24.15-9.45
		c5.81-18.5-9.3-45.71-8.33-56.05c0.97-10.34,10.71,0.05,16.55,17.44c5.83,17.39-7.45,32.94,1.48,61.24
		c8.92,28.3,68.87,27.38,68.87,27.38c-13.78-16.32-17.67-54.39-11.74-58.43c5.93-4.04,26.39,46.12,31.62,53.07
		C897.52,748.73,918.82,755.75,946.35,734.17z"/>
	<g>
		<path class="st0" d="M696.41,329.17c0,0,3.23-64.46,33.36-104.87c4-5.37,12.56-2.72,12.88,3.97c0.01,0.11,0.01,0.22,0.01,0.34
			C743.03,240.05,709.66,290.69,696.41,329.17z"/>
		<path class="st0" d="M693.69,347.75c0,0,27.14-82.16,80.46-121.34c3.25-2.39,7.91-1.92,10.42,1.24c1.63,2.06,2.53,5.39,1.23,10.77
			C782.33,252.78,723.4,304.37,693.69,347.75z"/>
	</g>
	<g>
		<path class="st0" d="M232.08,433.87c0,0-27.05-47.18-65.11-66.01c-5.06-2.5-10.47,2.76-8.15,7.9c0.04,0.09,0.08,0.17,0.12,0.26
			C163.03,384.75,207.43,410.03,232.08,433.87z"/>
		<path class="st0" d="M241.22,446.78c0,0-51.77-51.34-106.78-60.39c-3.35-0.55-6.68,1.58-7.35,4.91c-0.44,2.17,0.16,5.01,3.19,8.56
			C138.37,409.32,202.34,425.56,241.22,446.78z"/>
	</g>
	<path class="st1" d="M829.31,331.89v409.24c0,7.16-5.17,12.97-11.54,12.97H227.33c-6.37,0-11.54-5.81-11.54-12.97V331.89
		c0-7.17,5.17-12.97,11.54-12.97h590.44C824.14,318.92,829.31,324.73,829.31,331.89z"/>
	<g>
		<path class="st2" d="M800.12,308.53v33.19H141.19v-33.19c0-6.85,5.55-12.4,12.4-12.4h634.14
			C794.57,296.13,800.12,301.68,800.12,308.53z"/>
		<g>
			<path class="st3" d="M161.35,318.92c0-3.19,2.58-5.77,5.77-5.77c3.19,0,5.77,2.58,5.77,5.77c0,3.19-2.58,5.77-5.77,5.77
				C163.93,324.69,161.35,322.11,161.35,318.92z"/>
			<path class="st3" d="M184.09,318.92c0-3.19,2.58-5.77,5.77-5.77c3.19,0,5.77,2.58,5.77,5.77c0,3.19-2.58,5.77-5.77,5.77
				C186.67,324.69,184.09,322.11,184.09,318.92z"/>
			<path class="st3" d="M207.4,318.92c0-3.19,2.58-5.77,5.77-5.77c3.19,0,5.77,2.58,5.77,5.77c0,3.19-2.58,5.77-5.77,5.77
				C209.99,324.69,207.4,322.11,207.4,318.92z"/>
		</g>
	</g>
	<path class="st0" d="M568.08,260.39l7.89-0.89c0.66-0.07,1.3,0.24,1.66,0.79c0.46,0.71,0.95,1.4,1.47,2.08
		c0.97,1.26,2.01,2.43,3.12,3.49c0.52,0.5,0.69,1.25,0.43,1.91l-3.02,7.72c-0.33,0.82,0.03,1.76,0.84,2.16l6.8,3.37
		c0.77,0.38,1.7,0.12,2.16-0.6l4.11-6.44c0.39-0.63,1.15-0.93,1.89-0.73c3.12,0.82,6.37,1.15,9.62,0.96
		c0.78-0.05,1.51,0.46,1.75,1.21l1.39,4.43c0.27,0.84,1.13,1.36,2.01,1.19l7.38-1.49c0.15-0.03,0.29-0.07,0.43-0.14
		c0.64-0.3,1.03-1,0.94-1.73l-0.66-5.89l-0.16-1.44c1.23-0.69,2.43-1.48,3.58-2.36c1.55-1.19,2.95-2.5,4.2-3.89
		c0.48-0.53,1.23-0.72,1.89-0.46l6.22,2.44c0.85,0.33,1.81-0.04,2.21-0.86l2.57-5.2l0.73-1.49c0.4-0.81,0.13-1.8-0.63-2.29
		l-5.38-3.44c-0.63-0.39-0.94-1.14-0.76-1.84c0.5-2.12,0.78-4.29,0.82-6.46c0.02-0.19,0.02-0.36,0.02-0.55c0-0.06,0-0.12,0.01-0.18
		c0.07-0.7,0.55-1.27,1.22-1.48l7.19-2.28c0.08-0.02,0.16-0.06,0.23-0.09c0.7-0.34,1.1-1.13,0.95-1.91l-1.48-7.36
		c-0.18-0.89-1-1.49-1.91-1.39l-8.23,0.93c-0.7,0.09-1.37-0.27-1.7-0.89c-0.74-1.35-1.6-2.67-2.58-3.94
		c-0.52-0.67-1.06-1.32-1.62-1.94c-0.45-0.5-0.59-1.22-0.34-1.85l2.9-7.42c0.32-0.82-0.03-1.75-0.83-2.15l-6.73-3.32
		c-0.81-0.4-1.8-0.14-2.29,0.64l-3.25,5.09c-0.44,0.68-1.27,0.98-2.03,0.72c-2.99-1.04-6.12-1.59-9.28-1.67
		c-0.75-0.01-1.41-0.5-1.64-1.22l-2.05-6.48c-0.27-0.87-1.16-1.39-2.06-1.22l-7.33,1.47c-0.88,0.17-1.48,1-1.37,1.88l0.04,0.34
		l0.77,6.85c0.08,0.73-0.29,1.43-0.95,1.77l-0.01,0.01c-1.57,0.81-3.09,1.77-4.55,2.89c-0.78,0.6-1.51,1.22-2.22,1.88
		c-0.49,0.46-1.19,0.6-1.81,0.35l-6.31-2.48c-0.86-0.34-1.85,0.04-2.25,0.86l-3.31,6.7c-0.09,0.19-0.14,0.39-0.17,0.59
		c-0.07,0.64,0.23,1.3,0.79,1.66l4.3,2.73c0.52,0.34,0.83,0.94,0.8,1.54c-0.01,0.16-0.04,0.32-0.09,0.48
		c-1.31,3.84-1.83,7.9-1.55,11.95c0.06,0.69-0.32,1.33-0.92,1.65c-0.09,0.04-0.18,0.08-0.27,0.11l-5.83,1.84
		c-0.84,0.27-1.35,1.13-1.18,2l0.03,0.17l1.43,7.17C566.33,259.88,567.16,260.49,568.08,260.39z M618.54,237.99
		c0.45,1.13,0.82,2.34,1.07,3.64c0.48,2.48-0.02,6.39-1.14,8.66c-0.12,0.24-0.24,0.48-0.37,0.72c-7.72,14.33-27.95,11.48-31.28-4.69
		c-0.43-2.11-0.16-5.19,0.59-7.55c0.18-0.54,0.38-1.06,0.6-1.49c1.03-2.06,2.31-3.78,3.76-5.18
		C600.09,224.12,613.97,226.73,618.54,237.99z"/>
	<g>
		<path class="st4" d="M202.76,630.65c0,0,0.88-9.58-9.82-9.58c0,0,3.24,0.88,4.92,2.64c0,0-6.82-4.01-14.25,2.15
			c-7.43,6.16-2.81,21.6-5.07,24.53c-2.26,2.93-11.05,3.52-9.98,13c1.07,9.48,27.91,21.35,26.19,29.19c0,0,10.52-15.46,3-22.52
			c0,0,3.67,3.45,4.04,7.56c0,0,0.99-8.01-4.1-10.58c-4.51-2.27-8.21-10.56-7.82-12.05C190.25,653.52,202.76,630.65,202.76,630.65z"
			/>
		<path class="st5" d="M192.23,676.63c0,0,7.99,33.07,15.84,39.68c4.72,3.97,18.74,13.09,18.74,13.09l-5.83,2.12
			c0,0-19.45-6.57-23.81-11.69c-4.35-5.12-16.28-30.78-16.28-30.78L192.23,676.63z"/>
		<path class="st6" d="M117.1,734.74c0.07,0.13,0.15,0.26,0.22,0.39c1.75,3.04,5.76,10.49,10.18,18.64
			c2.09,3.87,4.28,7.9,6.36,11.68c3.58,6.54,6.83,12.36,8.73,15.44c1.93,3.13,3.35,5.33,3.93,6.21c0,0,0,0,0,0
			c0.17,0.27,0.21,0.59,0.19,0.91c-0.2,2.76-0.14,5.5,0.13,8.2c2.67,26.53,20.55,40.74,20.55,40.74l5.32,0.79
			c0,0-7.53-27.88-9.74-43.64c-0.37-2.67-0.54-4.84-0.41-6.25c0.39-4.11-0.34-10.14-1.72-17.06c-2.46-12.3-6.96-27.4-10.87-39.49
			c-0.25-0.77-7.73-27.83-7.73-27.83c-6.28,5.49-29.17,7.75-29.17,7.75S109.18,720.66,117.1,734.74z"/>
		<path class="st1" d="M183.86,844.46h-22.2c0,0-0.53-3.38,0.63-5.95c1.11-2.46,2.69-2.54,0.2-6.4c1.41,1.45,5.94,2.05,9.15,1.62
			c0.39,0.64,2.53,4.91,3.85,5.86C176.95,840.63,183.42,840.26,183.86,844.46z"/>
		<path class="st7" d="M117.1,734.74c0.07,0.13,0.15,0.26,0.22,0.39c1.75,3.04,11.21,20.51,15.63,28.67
			c-5.12-21.07-1.56-42.14-1.56-42.14L117.1,734.74z"/>
		<path class="st4" d="M199.73,629.31c0.15-0.58-12.68,5.8-13.33,6.52c-6.01,6.67-4.3,15.37-0.86,15.46
			c2.21,0.05,1.78,3.72,1.78,3.72l24.58-10.4C211.91,644.6,208.95,627.34,199.73,629.31z"/>
		<path class="st8" d="M191.47,671.67c0,0,3.74,7.47,3.27,13.54c0,0-4.51,7.12-16.21,8.92C178.54,694.13,188.6,671.66,191.47,671.67
			z"/>
		<path class="st6" d="M134.4,712.88l0.08-4.15c-8.27,1.04-28.52-9.88-28.52-9.88s-8.65,5.76-9.84,22.19
			c-0.58,8.02-4.24,41.95-4.64,52.08c-0.15,3.67-0.2,6.29-0.21,7.34c0,0.01,0,0.01,0,0.01c0,0.32-0.15,0.6-0.35,0.85
			c-1.71,2.18-3.2,4.48-4.48,6.87c-12.62,23.48-6.02,55.39-6.02,55.39l2.93-0.75c0,0,10.67-33.08,17.65-47.38
			c1.18-2.43,2.26-4.31,3.16-5.41c2.62-3.19,5.39-8.59,8.11-15.1C117.41,762.63,134.4,712.88,134.4,712.88z"/>
		<path class="st1" d="M98.06,844.46h-22.2c0,0-0.53-3.38,0.63-5.95c1.11-2.46,2.85-3.58,2.43-6.56c1.41,1.45,3.71,3.08,6.92,2.65
			c0.39,0.64,2.54,4.05,3.85,4.99C91.15,840.63,97.62,840.26,98.06,844.46z"/>
		<path class="st8" d="M177.04,698.9c-2.98,0.51,0.49,2.88-3.61,3.32c-5.84,0.64-11.86,1.07-15.02,2.33
			c-1.15,0.46-1.92,1.03-2.16,1.75c-1.37,4.11-10.03,11.18-10.03,11.18c-38.65-1.76-41.14-18.98-41.14-18.98
			c25.08-24.36,46.42-37.64,64.06-39.28c4.29-0.4,10.08,0.14,12.79,1.35c6.17,2.75,9.55,11.1,9.55,11.1S188.37,696.96,177.04,698.9z
			"/>
		<path class="st2" d="M173.42,702.22c-5.84,0.64-11.86,1.07-15.02,2.33c-1.29-19.28,7.81-33.77,7.81-33.77
			S172.15,694.93,173.42,702.22z"/>
		<path class="st5" d="M181.59,662.15c1.1,3.46,4.78,13.3,9.88,9.51c-0.17-0.73,0.9-2.87,2.16-5.04c1.61-2.77,3.54-5.61,3.54-5.61
			l-8.31-7.28l-0.5-0.43c-2.17,3.79-4.31,5.62-6.18,7.02C181.62,660.74,181.38,661.48,181.59,662.15z"/>
		<path class="st9" d="M197.17,661.02c0,0-1.92,2.83-3.53,5.61c-5.16-3.18-5.17-9.57-4.77-12.89L197.17,661.02z"/>
		<path class="st5" d="M197.4,664.67c0,0-12.54-6.98-8.07-14.72c4.46-7.74,5.85-13.85,14.05-9.73c8.19,4.13,8.03,7.97,7.17,10.92
			C209.68,654.09,200.78,666.28,197.4,664.67z"/>
		<path class="st4" d="M212.66,646.63c-0.57-3.44-2.32-3.76-3.54-3.54c-4.63-7.66-12.19-4.67-12.19-4.67
			c-4.04,5.07-9.88,5.94-9.88,5.94s1.45,2.71,7.45,4.38c1.83,0.51,3.91,0.2,5.91-0.47c-4.16,2.32-8.51,3.21-8.51,3.21
			c7.9,0.72,15.41-6.5,16.19-7.27c0.36,1.12,1,3.46,0.62,5.18c-0.52,2.33-2.59,6.54-1.32,7.09
			C207.39,656.47,213.52,651.78,212.66,646.63z"/>
		<g>
			
				<rect x="232.78" y="767.43" transform="matrix(0.8989 0.4382 -0.4382 0.8989 371.0834 -45.82)" class="st6" width="104.07" height="27.29"/>
			<g>
				<path class="st6" d="M202.81,775.67c-8.59-4.19-14.69-11.94-16.74-21.28c-0.83-3.79,1.56-7.54,5.36-8.37
					c3.79-0.83,7.54,1.56,8.37,5.36c1.12,5.12,4.47,9.37,9.17,11.66c8.44,4.11,18.65,0.6,22.76-7.84c4.11-8.44,0.6-18.65-7.84-22.76
					c-3.83-1.87-8.19-2.23-12.28-1.03c-3.72,1.1-7.63-1.03-8.73-4.75c-1.1-3.72,1.03-7.63,4.75-8.73c7.46-2.2,15.42-1.54,22.42,1.87
					c15.4,7.51,21.83,26.15,14.32,41.56C236.85,776.76,218.21,783.18,202.81,775.67z"/>
			</g>
			<g>
				<path class="st6" d="M335.14,840.18c-15.4-7.51-21.83-26.15-14.32-41.56c7.51-15.4,26.15-21.83,41.56-14.32
					c7,3.41,12.42,9.27,15.28,16.51c1.43,3.61-0.34,7.69-3.95,9.12c-3.61,1.43-7.69-0.34-9.12-3.95c-1.57-3.96-4.54-7.17-8.37-9.04
					c-8.44-4.11-18.65-0.6-22.76,7.84c-4.11,8.44-0.6,18.65,7.84,22.76c4.7,2.29,10.11,2.31,14.84,0.04c3.5-1.68,7.7-0.2,9.38,3.3
					c1.68,3.5,0.2,7.7-3.3,9.38C353.59,844.4,343.72,844.37,335.14,840.18z"/>
			</g>
			<path class="st7" d="M303.9,794.4l-49.28-24.02c-1.41-0.69-2.01-2.41-1.32-3.82l1.25-2.57c0.69-1.41,2.41-2.01,3.82-1.32
				l49.28,24.02c1.41,0.69,2.01,2.41,1.32,3.82l-1.25,2.57C307.03,794.5,305.31,795.09,303.9,794.4z"/>
		</g>
		<path class="st5" d="M190.22,750.75c0,0,0.27,2.34,1.26,3.54c0.99,1.21,3.86,4.13,3.91,5.83c0,0-0.14,0.76-0.76,0.62
			c-0.62-0.14-2.76-2.26-3.85-2.1c0,0,0.59,3.42,1.17,4.39c0.58,0.96,1.65,4.6,1.3,5.43c-0.35,0.83-6.16-4.01-7.92-6.38
			c-1.76-2.37-0.03-11.97-0.03-11.97L190.22,750.75z"/>
		<path class="st5" d="M178.46,667.52c0,0-14.68-0.8-17.28,8.41c-2.61,9.21,4.89,45.99,6.51,49.79
			c2.94,6.91,17.27,26.64,17.27,26.64l5.27-1.6c0,0-9.55-30.13-11.69-33.12C175.19,712.95,182.85,671.52,178.46,667.52z"/>
		<path class="st8" d="M158.28,688.25c0.04,0.22,13.89,2.55,22.55-1.85c0,0,7.24-22.67-3.11-21.59
			c-10.34,1.08-16.47,4.34-16.73,9.29C160.74,679.06,158.28,688.25,158.28,688.25z"/>
		<path class="st5" d="M219.6,714.67c-0.7,0.03-1.97,0.26-2.43,0.61c-0.8,0.62-1.7,1.69,0.09,2.58c2.69,1.34,8.07,0.75,7.86-0.06
			C224.46,715.26,223.49,714.49,219.6,714.67z"/>
	</g>
	<g>
		<path class="st5" d="M296.93,353.74c-0.71,0.81-0.8,1.72-0.45,2.69c0,0,0,0.01,0.01,0.01c0.65,1.79,2.79,3.79,5.27,5.78
			c0.32,0.26,0.6,0.49,0.85,0.71c0.06,0.06,0.13,0.11,0.19,0.17c0.05,0.04,0.1,0.09,0.15,0.13c2.32,2.14,1.45,2.63,5.61,6.96
			c4.75,4.94,8.02,5.03,8.95,4.58c0.79-0.38-0.81-3-2.58-5.95c-0.09-0.14-0.17-0.29-0.26-0.43c-0.24-0.39-0.47-0.79-0.7-1.18
			c-2.08-3.54-1.54-5.21-1.05-10.48c0.4-4.29,6.67-23.95,6.67-23.95l-9.1-1.57c0,0-2.74,15.66-5.76,18.07
			c-1.61,1.29-3.42,1.3-4.97,2.25c-0.11,0.07-0.22,0.13-0.32,0.2C298.54,352.33,297.64,352.93,296.93,353.74z"/>
		<path class="st7" d="M296.93,353.74c-0.71,0.81-0.8,1.72-0.45,2.69c0,0,0,0.01,0.01,0.01c0.79,1.79,2.88,3.78,5.28,5.77
			c0.31,0.26,0.59,0.5,0.84,0.72c0.06,0.06,0.13,0.11,0.19,0.17c0.05,0.04,0.1,0.09,0.15,0.13c2.32,2.14,1.45,2.63,5.61,6.96
			c4.75,4.94,8.02,5.03,8.95,4.58c0.79-0.38-0.81-3-2.58-5.95c-0.92-0.34-5.22-2.08-8.46-6.24c-2.86-3.65-4.77-8.34-6.71-11.05
			c-0.11,0.07-0.22,0.13-0.32,0.2C298.54,352.33,297.64,352.93,296.93,353.74z"/>
		<path class="st5" d="M370.3,348.06c0.56,2.81,4.57,2.34,9.04,1.25c4.47-1.09,3.41,0.21,9.78-0.5c6.37-0.7,8.29-3.08,8.49-4.02
			c0.17-0.84-2.97-1.14-6.35-1.52c-0.42-0.05-0.85-0.1-1.28-0.15c-3.81-0.48-6.6-2.94-10.06-4.95c-3.28-1.91-8.17-9.7-8.17-9.7
			l-8.73,0.69c0,0,4.58,6.96,6.35,9.98c1.04,1.78,0.99,4.13,0.86,5.95C370.17,346.06,370.1,347.07,370.3,348.06z"/>
		<path class="st7" d="M379.34,349.31c4.47-1.09,3.41,0.21,9.78-0.5c6.37-0.7,8.29-3.08,8.49-4.02c0.17-0.84-2.97-1.14-6.35-1.52
			l-0.03,0.06c0,0-3.82,2.71-9.12,2.83c-4.32,0.1-8.89-1.13-11.88-1.08c-0.07,0.99-0.13,2,0.07,2.99
			C370.86,350.87,374.87,350.4,379.34,349.31z"/>
		<path class="st7" d="M336.84,292.24l-8.16,21.96l-10.65,28.67c0,0-2.89,0.28-5.66-0.52c-2.55-0.74-5.47-2.66-5.47-2.66
			s2.96-30.79,8.48-48.46c1.41-4.54,3-8.21,4.75-10.27C328.68,270.84,336.84,292.24,336.84,292.24z"/>
		<path class="st6" d="M328.55,257.36c-5.35-1.72-20.6,0.49-35.92,3.49l-3.21-5.29l-33.09-2.58c0,0-10.92,24.21-4.94,39.64
			c0.88,2.27,2.62,3.72,5.6,3.77c0,0,0.48,0,0.48,0c0,0,19.69-0.01,26.09-0.01c16.45,0,34.82-11.31,37.2-11.79
			c3.89-0.78,5.45,7,9.34,15.17c3.89,8.17,36.56,36.17,36.56,36.17s5.02,0.05,7.1-0.73c2.23-0.84,3.05-1.92,3.05-1.92
			S340.6,261.25,328.55,257.36z"/>
		<path class="st4" d="M278.46,154.83c-4.64-1.19-10.98,0-12.03,0.1c-12.59,1.24-16.82,15.28-14.91,26.18
			c1.76,10.06-3.34,12.84-9.25,20.78c-11.85,15.93-4.11,29.35,5.25,32.82c5.61,2.08,13.4-3.16,13.4-3.16
			c0.14,0.06,24.48-15.95,34.46-24.97C311.98,200.07,290.28,157.87,278.46,154.83z"/>
		<path class="st5" d="M280.32,200.89c0.33,1.17-5.18,3.31-9.38,2.52c-3.95-0.74-8.39-5.37-7.47-5.8c1.51-0.72,2.53-2.51,1.7-12.18
			l0.75,0.09l12.65,1.44c0,0,0.04,3.94,0.33,7.63C279.15,197.69,279.78,198.99,280.32,200.89z"/>
		<path class="st9" d="M278.58,186.96c0,0,0.04,3.94,0.33,7.63c-6.98,0.37-11.19-5.68-12.99-9.08L278.58,186.96z"/>
		<path class="st5" d="M281.19,190.26c0,0-16.46,1.62-17.32-8.64c-0.85-10.27-3.55-16.97,6.92-18.44
			c10.47-1.47,12.85,2.28,13.96,5.64C285.88,172.17,285.45,189.58,281.19,190.26z"/>
		<path class="st4" d="M279.43,161.55c0,0-2.07,12.54-11.45,15.52c-6.84,2.17-9.94,0.74-9.94,0.74s3.29-4.37,4.46-10.44
			c0.34-1.79,1.62-3.26,3.35-3.83C270.71,161.95,276.6,157.58,279.43,161.55z"/>
		<path class="st4" d="M276.32,164.23c0,0,3.1,0.69,5.85,4.69c1.5,2.19,3.24,7.7,2.95,10.14c0,0,2.88-11.61-1.32-15.93
			C279.35,158.56,276.32,164.23,276.32,164.23z"/>
		<path class="st8" d="M250.68,234.62c0.29,1.25,0.54,2.39,0.75,3.45c0.34,1.71,0.57,3.18,0.73,4.48c0.5,4.05,0.35,6.45,0.69,9.07
			c0.19,1.47,0.53,3.01,1.23,4.94c0.68,1.88,18.57,3.56,28.75,2.88c3.23-0.21,5.69-0.67,6.57-1.42c3.63-3.15,3.27,3.78,3.77-29.4
			c0.24-16.19-13.74-30.6-13.74-30.6s-1.12,6.91-14.98-1.31c-0.49-0.29-5.95,7.8-11.21,17.75
			C247.45,225.45,249.04,227.77,250.68,234.62z"/>
		<path class="st7" d="M328.68,314.2l-10.65,28.67c0,0-2.89,0.28-5.66-0.52c-2.55-0.74-5.47-2.66-5.47-2.66s2.96-30.79,8.48-48.46
			L328.68,314.2z"/>
		<path class="st8" d="M279.43,198.01c0,0,14.26,2.42,15.94,8.56c1.67,6.14,13.25,40.48,13.25,40.48s-8.97,3.06-12.31-0.29
			c-3.35-3.35-11.65-31.08-11.65-31.08L279.43,198.01z"/>
		<path class="st3" d="M277.39,184.21c0,0,0.69,1.69,2.51,1.69c1.82,0,2.32-0.27,2.66-0.66c0.34-0.39,0.69-1.13,0.69-1.13
			S280.23,183.51,277.39,184.21z"/>
		<path class="st2" d="M252.15,242.55c0.5,4.05,0.35,6.45,0.69,9.07c12.95,0.04,30.26-10,30.26-10L252.15,242.55z"/>
		<path class="st2" d="M283.11,233.13c0,0-20.17-0.6-23.57-12.07c-3.74-12.6-7.92,5.18-7.92,5.18l2.23,11.35h22.13L283.11,233.13z"
			/>
		<g>
			<path class="st10" d="M318.28,202.02l-1.09-2.7c-1.17-2.89-3.98-4.79-7.1-4.79h-20.11v12.76v54.48h83.19v-54.48h-47.08
				C322.66,207.29,319.56,205.2,318.28,202.02z"/>
			<g>
				<path class="st3" d="M302.52,235.42v-4.85l17-7.45v4.95l-11.87,4.88l11.87,4.88v5.02L302.52,235.42z"/>
				<path class="st3" d="M337.19,217.33h4.53l-15.56,32.53h-4.53L337.19,217.33z"/>
				<path class="st3" d="M360.62,230.57v4.85l-17,7.45v-4.95l11.87-4.88l-11.87-4.88v-5.02L360.62,230.57z"/>
			</g>
		</g>
		<path class="st5" d="M283.11,235.79l1.46-2.29c0,0,1.16-0.38,2.78-1.51c1.93-1.35,1.67-3.38,2.63-3.17l0.01,4.45l-0.1,0.02
			c4.13,1.1,8.97-0.1,9.07,0.93c0.27,2.83-1.92,4.11-3.76,4.99c-1.4,0.68-3,1.7-5.54,0.91c-1.85-0.58-4.77-1.16-4.77-1.16
			L283.11,235.79z"/>
		<path class="st8" d="M264.45,196.7c0,0-13.1,0.86-16.37,5.96c-3.27,5.11-7.33,31.04-5.63,39.94c1.7,8.91,43.64-1.7,43.64-1.7
			l-1.34-7.73c0,0-24.2,0.14-25.58-3.01C257.33,225.98,264.45,196.7,264.45,196.7z"/>
		<path class="st5" d="M327.66,207.26c-0.11,0.34,1.97,3.77,4.94,3.17c1.85-0.37,4.26-4.36,2.15-5.24
			C331.22,203.72,327.96,206.35,327.66,207.26z"/>
	</g>
	<g>
		<g>
			
				<rect x="428.15" y="341.45" transform="matrix(0.4709 -0.8822 0.8822 0.4709 -47.5885 604.042)" class="st6" width="103.28" height="0.5"/>
		</g>
		<g>
			
				<rect x="654.59" y="285.41" transform="matrix(0.7334 -0.6798 0.6798 0.7334 -46.7822 531.9589)" class="st6" width="0.5" height="80.43"/>
		</g>
		<g>
			<path class="st3" d="M716.16,372.34c0.81,5.91-0.81,11.6-4.08,16.02c-3.27,4.42-8.18,7.55-13.95,8.35l-244.44,33.59
				c-12.48,1.71-24.01-6.55-25.64-18.37c-0.81-5.91,1-11.63,4.58-16.09c3.57-4.46,8.91-7.65,15.15-8.51l244.44-33.59
				C703.77,352.15,714.53,360.52,716.16,372.34z"/>
			<path class="st6" d="M716.16,372.34c0.81,5.91-0.81,11.6-4.08,16.02c-3.27,4.42-8.18,7.55-13.95,8.35l-44.23,6.08l-5.9-42.96
				l44.23-6.08C703.77,352.15,714.53,360.52,716.16,372.34z"/>
			<g>
				<g>
					<path class="st3" d="M689.24,383.99c-0.54,0.07-1.1,0.11-1.66,0.1c-2.95-0.03-5.71-1.22-7.78-3.33
						c-4.26-4.36-4.18-11.37,0.18-15.63l0,0c4.36-4.26,11.37-4.18,15.63,0.18c4.26,4.36,4.18,11.37-0.18,15.63
						C693.72,382.62,691.56,383.67,689.24,383.99z M681.26,366.44c-3.64,3.56-3.71,9.41-0.15,13.05c1.72,1.76,4.03,2.75,6.5,2.78
						c2.46,0.03,4.79-0.9,6.56-2.63c3.64-3.56,3.71-9.41,0.15-13.05C690.75,362.95,684.9,362.88,681.26,366.44L681.26,366.44z"/>
				</g>
				
					<rect x="674.15" y="377.86" transform="matrix(0.6989 0.7152 -0.7152 0.6989 478.9238 -366.7769)" class="st3" width="1.82" height="15.08"/>
				<path class="st3" d="M665.92,394.33L665.92,394.33c-0.63-0.64-0.62-1.67,0.03-2.3l6.35-6.21c0.64-0.63,1.67-0.62,2.3,0.03l0,0
					c0.63,0.64,0.62,1.67-0.03,2.3l-6.35,6.21C667.57,394.99,666.55,394.98,665.92,394.33z"/>
			</g>
		</g>
	</g>
	<g>
		<path class="st8" d="M305.37,605.78h-50.46c-1.23,0-2.23-1-2.23-2.23v-0.2c0-1.23,1-2.23,2.23-2.23h50.46c1.23,0,2.23,1,2.23,2.23
			v0.2C307.6,604.79,306.6,605.78,305.37,605.78z"/>
		<g>
			<path class="st6" d="M279.47,621.81h-25.2c-0.88,0-1.59-0.71-1.59-1.59l0,0c0-0.88,0.71-1.59,1.59-1.59h25.2
				c0.88,0,1.59,0.71,1.59,1.59l0,0C281.06,621.09,280.35,621.81,279.47,621.81z"/>
			<g>
				<path class="st6" d="M298.72,615.14H254.2c-0.84,0-1.52-0.68-1.52-1.52v-0.14c0-0.84,0.68-1.52,1.52-1.52h44.52
					c0.84,0,1.52,0.68,1.52,1.52v0.14C300.24,614.46,299.56,615.14,298.72,615.14z"/>
				<path class="st6" d="M347.47,615.14H306.1c-0.84,0-1.52-0.68-1.52-1.52v-0.14c0-0.84,0.68-1.52,1.52-1.52h41.37
					c0.84,0,1.52,0.68,1.52,1.52v0.14C348.99,614.46,348.31,615.14,347.47,615.14z"/>
				<path class="st6" d="M310.9,621.81h-25.2c-0.88,0-1.59-0.71-1.59-1.59l0,0c0-0.88,0.71-1.59,1.59-1.59h25.2
					c0.88,0,1.59,0.71,1.59,1.59l0,0C312.49,621.09,311.78,621.81,310.9,621.81z"/>
			</g>
		</g>
		<path class="st8" d="M367.56,605.78H317.1c-1.23,0-2.23-1-2.23-2.23v-0.21c0-1.23,1-2.23,2.23-2.23h50.46c1.23,0,2.23,1,2.23,2.23
			v0.2C369.79,604.79,368.79,605.78,367.56,605.78z"/>
	</g>
	<g>
		<path class="st8" d="M305.37,640.87h-50.46c-1.23,0-2.23-1-2.23-2.23v-0.2c0-1.23,1-2.23,2.23-2.23h50.46c1.23,0,2.23,1,2.23,2.23
			v0.21C307.6,639.87,306.6,640.87,305.37,640.87z"/>
		<g>
			<path class="st6" d="M279.47,656.89h-25.2c-0.88,0-1.59-0.71-1.59-1.59l0,0c0-0.88,0.71-1.59,1.59-1.59h25.2
				c0.88,0,1.59,0.71,1.59,1.59l0,0C281.06,656.17,280.35,656.89,279.47,656.89z"/>
			<g>
				<path class="st6" d="M298.72,650.22H254.2c-0.84,0-1.52-0.68-1.52-1.52v-0.14c0-0.84,0.68-1.52,1.52-1.52h44.52
					c0.84,0,1.52,0.68,1.52,1.52v0.14C300.24,649.54,299.56,650.22,298.72,650.22z"/>
				<path class="st6" d="M347.47,650.22H306.1c-0.84,0-1.52-0.68-1.52-1.52v-0.14c0-0.84,0.68-1.52,1.52-1.52h41.37
					c0.84,0,1.52,0.68,1.52,1.52v0.14C348.99,649.54,348.31,650.22,347.47,650.22z"/>
				<path class="st6" d="M310.9,656.89h-25.2c-0.88,0-1.59-0.71-1.59-1.59l0,0c0-0.88,0.71-1.59,1.59-1.59h25.2
					c0.88,0,1.59,0.71,1.59,1.59l0,0C312.49,656.17,311.78,656.89,310.9,656.89z"/>
			</g>
		</g>
		<path class="st8" d="M367.56,640.87H317.1c-1.23,0-2.23-1-2.23-2.23v-0.2c0-1.23,1-2.23,2.23-2.23h50.46c1.23,0,2.23,1,2.23,2.23
			v0.2C369.79,639.87,368.79,640.87,367.56,640.87z"/>
	</g>
	<g>
		<polygon class="st7" points="571.12,427.64 541.96,434.43 527.53,460.67 516.52,400.86 		"/>
		
			<rect x="544.89" y="427.15" transform="matrix(0.797 -0.604 0.604 0.797 -156.1496 420.5327)" class="st7" width="5.33" height="30.85"/>
	</g>
	<g>
		<path class="st0" d="M548.1,551.27h-63.86c-5.07,0-9.18-4.11-9.18-9.18v-63.86c0-5.07,4.11-9.18,9.18-9.18h63.86
			c5.07,0,9.18,4.11,9.18,9.18v63.86C557.28,547.16,553.17,551.27,548.1,551.27z"/>
		<g>
			<path class="st6" d="M485.56,534.07l15.98-28.81c1.86-3.35,6.57-3.65,8.83-0.56l9.22,12.57c1.96,2.67,5.88,2.89,8.12,0.44l0,0
				c2.32-2.54,6.42-2.2,8.29,0.69l9.95,15.36c2.26,3.5-0.25,8.11-4.41,8.11h-51.37C486.15,541.88,483.62,537.57,485.56,534.07z"/>
			<path class="st6" d="M517.09,491.8c0-3.47,2.81-6.29,6.29-6.29c3.47,0,6.29,2.81,6.29,6.29c0,3.47-2.81,6.29-6.29,6.29
				C519.91,498.09,517.09,495.27,517.09,491.8z"/>
		</g>
	</g>
	<g>
		<path class="st0" d="M657.23,553.48l-71.06,9.69c-2.88,0.39-5.53-1.62-5.92-4.5l-9.69-71.06c-0.39-2.88,1.62-5.53,4.5-5.92
			l71.06-9.69c2.88-0.39,5.53,1.62,5.92,4.5l9.69,71.06C662.11,550.44,660.1,553.09,657.23,553.48z"/>
		<g>
			<path class="st6" d="M589.04,545.43l11.94-30.7c1.39-3.57,6.01-4.5,8.68-1.75l10.83,11.21c2.3,2.38,6.21,2.07,8.1-0.66l0,0
				c1.96-2.83,6.06-3.04,8.31-0.44l11.93,13.87c2.72,3.16,0.85,8.07-3.27,8.63l-50.9,6.94
				C590.68,553.08,587.59,549.16,589.04,545.43z"/>
			<path class="st6" d="M614.57,499.28c-0.47-3.44,1.94-6.61,5.38-7.08c3.44-0.47,6.61,1.94,7.08,5.38
				c0.47,3.44-1.94,6.61-5.38,7.08C618.21,505.13,615.04,502.72,614.57,499.28z"/>
		</g>
	</g>
	<g>
		<rect x="406.84" y="807.52" class="st8" width="41.44" height="35.53"/>
		<rect x="405.17" y="806" class="st1" width="44.52" height="2.75"/>
		<rect x="406.84" y="817.13" class="st1" width="41.44" height="11.29"/>
	</g>
	<path class="st8" d="M498.7,843.08h-39.13c-1.43,0-2.59-1.16-2.59-2.59v-4.34c0-1.55,1.34-2.75,2.88-2.58l39.13,4.34
		c1.31,0.15,2.31,1.26,2.31,2.58l0,0C501.3,841.91,500.13,843.08,498.7,843.08z"/>
	<path class="st7" d="M917.87,846.54l-875.34-0.3c-0.59,0-1.07-0.6-1.07-1.33l0-0.68c0-0.73,0.48-1.33,1.07-1.33l875.33,0.3
		c0.59,0,1.07,0.6,1.07,1.33v0.68C918.94,845.95,918.46,846.54,917.87,846.54z"/>
	<g>
		<path class="st6" d="M430.35,554.5h-4.51c-0.41,0-0.74-0.33-0.74-0.74s0.33-0.74,0.74-0.74h4.48c0.41,0,0.76,0.33,0.76,0.74
			S430.76,554.5,430.35,554.5z M421.36,554.5h-4.48c-0.41,0-0.74-0.33-0.74-0.74s0.33-0.74,0.74-0.74h4.48
			c0.41,0,0.74,0.33,0.74,0.74S421.77,554.5,421.36,554.5z M412.4,554.5h-4.48c-0.41,0-0.74-0.33-0.74-0.74s0.33-0.74,0.74-0.74
			h4.48c0.41,0,0.74,0.33,0.74,0.74S412.81,554.5,412.4,554.5z M403.44,554.5h-4.48c-0.41,0-0.74-0.33-0.74-0.74
			s0.33-0.74,0.74-0.74h4.48c0.41,0,0.74,0.33,0.74,0.74S403.85,554.5,403.44,554.5z M394.49,554.5h-4.48
			c-0.41,0-0.74-0.33-0.74-0.74s0.33-0.74,0.74-0.74h4.48c0.41,0,0.74,0.33,0.74,0.74S394.89,554.5,394.49,554.5z M385.53,554.5
			h-4.48c-0.41,0-0.74-0.33-0.74-0.74s0.33-0.74,0.74-0.74h4.48c0.41,0,0.74,0.33,0.74,0.74S385.94,554.5,385.53,554.5z
			 M376.57,554.5h-4.48c-0.41,0-0.74-0.33-0.74-0.74s0.33-0.74,0.74-0.74h4.48c0.41,0,0.74,0.33,0.74,0.74
			S376.98,554.5,376.57,554.5z M367.61,554.5h-4.48c-0.41,0-0.74-0.33-0.74-0.74s0.33-0.74,0.74-0.74h4.48
			c0.41,0,0.74,0.33,0.74,0.74S368.02,554.5,367.61,554.5z M358.65,554.5h-4.48c-0.41,0-0.74-0.33-0.74-0.74s0.33-0.74,0.74-0.74
			h4.48c0.41,0,0.74,0.33,0.74,0.74S359.06,554.5,358.65,554.5z M349.7,554.5h-4.48c-0.41,0-0.74-0.33-0.74-0.74
			s0.33-0.74,0.74-0.74h4.48c0.41,0,0.74,0.33,0.74,0.74S350.11,554.5,349.7,554.5z M340.74,554.5h-4.48
			c-0.41,0-0.74-0.33-0.74-0.74s0.33-0.74,0.74-0.74h4.48c0.41,0,0.74,0.33,0.74,0.74S341.15,554.5,340.74,554.5z M331.78,554.5
			h-4.48c-0.41,0-0.74-0.33-0.74-0.74s0.33-0.74,0.74-0.74h4.48c0.41,0,0.74,0.33,0.74,0.74S332.19,554.5,331.78,554.5z
			 M322.82,554.5h-4.48c-0.41,0-0.74-0.33-0.74-0.74s0.33-0.74,0.74-0.74h4.48c0.41,0,0.74,0.33,0.74,0.74
			S323.23,554.5,322.82,554.5z M313.87,554.5h-4.48c-0.41,0-0.74-0.33-0.74-0.74s0.33-0.74,0.74-0.74h4.48
			c0.41,0,0.74,0.33,0.74,0.74S314.28,554.5,313.87,554.5z M304.91,554.5h-4.48c-0.41,0-0.74-0.33-0.74-0.74s0.33-0.74,0.74-0.74
			h4.48c0.41,0,0.74,0.33,0.74,0.74S305.32,554.5,304.91,554.5z M295.95,554.5h-4.48c-0.41,0-0.74-0.33-0.74-0.74
			s0.33-0.74,0.74-0.74h4.48c0.41,0,0.74,0.33,0.74,0.74S296.36,554.5,295.95,554.5z M286.99,554.5h-4.48
			c-0.41,0-0.74-0.33-0.74-0.74s0.33-0.74,0.74-0.74h4.48c0.41,0,0.74,0.33,0.74,0.74S287.4,554.5,286.99,554.5z M278.03,554.5
			h-3.99c-0.18,0-0.36-0.01-0.53-0.02c-0.41-0.03-0.72-0.38-0.69-0.79c0.03-0.41,0.38-0.73,0.79-0.69c0.15,0.01,0.29,0.01,0.44,0.01
			h3.99c0.41,0,0.74,0.33,0.74,0.74S278.44,554.5,278.03,554.5z M434.56,553.2c-0.24,0-0.47-0.11-0.61-0.32
			c-0.23-0.34-0.14-0.8,0.2-1.03c1.13-0.77,1.99-1.84,2.5-3.1c0.15-0.38,0.58-0.56,0.96-0.41c0.38,0.15,0.56,0.59,0.41,0.96
			c-0.62,1.53-1.67,2.84-3.04,3.77C434.85,553.16,434.71,553.2,434.56,553.2z M269.43,552.93c-0.16,0-0.32-0.05-0.45-0.15
			c-1.32-1.01-2.29-2.38-2.81-3.95c-0.13-0.39,0.08-0.81,0.47-0.94c0.39-0.13,0.81,0.08,0.94,0.47c0.43,1.29,1.23,2.41,2.31,3.24
			c0.32,0.25,0.38,0.72,0.13,1.04C269.87,552.83,269.65,552.93,269.43,552.93z M437.88,545.36c-0.41,0-0.74-0.33-0.74-0.74v-4.48
			c0-0.41,0.33-0.74,0.74-0.74c0.41,0,0.74,0.33,0.74,0.74v4.48C438.62,545.02,438.29,545.36,437.88,545.36z M266.48,544.9
			c-0.41,0-0.74-0.33-0.74-0.74v-4.48c0-0.41,0.33-0.74,0.74-0.74s0.74,0.33,0.74,0.74v4.48
			C267.22,544.57,266.89,544.9,266.48,544.9z M437.88,536.4c-0.41,0-0.74-0.33-0.74-0.74v-4.48c0-0.41,0.33-0.74,0.74-0.74
			c0.41,0,0.74,0.33,0.74,0.74v4.48C438.62,536.07,438.29,536.4,437.88,536.4z M266.48,535.94c-0.41,0-0.74-0.33-0.74-0.74v-4.48
			c0-0.41,0.33-0.74,0.74-0.74s0.74,0.33,0.74,0.74v4.48C267.22,535.61,266.89,535.94,266.48,535.94z M437.88,527.44
			c-0.41,0-0.74-0.33-0.74-0.74v-4.48c0-0.41,0.33-0.74,0.74-0.74c0.41,0,0.74,0.33,0.74,0.74v4.48
			C438.62,527.11,438.29,527.44,437.88,527.44z M266.48,526.98c-0.41,0-0.74-0.33-0.74-0.74v-4.48c0-0.41,0.33-0.74,0.74-0.74
			s0.74,0.33,0.74,0.74v4.48C267.22,526.65,266.89,526.98,266.48,526.98z M437.88,518.48c-0.41,0-0.74-0.33-0.74-0.74v-4.48
			c0-0.41,0.33-0.74,0.74-0.74c0.41,0,0.74,0.33,0.74,0.74v4.48C438.62,518.15,438.29,518.48,437.88,518.48z M266.48,518.03
			c-0.41,0-0.74-0.33-0.74-0.74v-4.48c0-0.41,0.33-0.74,0.74-0.74s0.74,0.33,0.74,0.74v4.48
			C267.22,517.69,266.89,518.03,266.48,518.03z M437.88,509.52c-0.41,0-0.74-0.33-0.74-0.74v-4.48c0-0.41,0.33-0.74,0.74-0.74
			c0.41,0,0.74,0.33,0.74,0.74v4.48C438.62,509.19,438.29,509.52,437.88,509.52z M266.48,509.07c-0.41,0-0.74-0.33-0.74-0.74v-4.48
			c0-0.41,0.33-0.74,0.74-0.74s0.74,0.33,0.74,0.74v4.48C267.22,508.74,266.89,509.07,266.48,509.07z M437.88,500.57
			c-0.41,0-0.74-0.33-0.74-0.74v-4.48c0-0.41,0.33-0.74,0.74-0.74c0.41,0,0.74,0.33,0.74,0.74v4.48
			C438.62,500.23,438.29,500.57,437.88,500.57z M266.48,500.11c-0.41,0-0.74-0.33-0.74-0.74v-4.48c0-0.41,0.33-0.74,0.74-0.74
			s0.74,0.33,0.74,0.74v4.48C267.22,499.78,266.89,500.11,266.48,500.11z M437.88,491.61c-0.41,0-0.74-0.33-0.74-0.74v-4.48
			c0-0.41,0.33-0.74,0.74-0.74c0.41,0,0.74,0.33,0.74,0.74v4.48C438.62,491.28,438.29,491.61,437.88,491.61z M266.48,491.15
			c-0.41,0-0.74-0.33-0.74-0.74v-4.48c0-0.41,0.33-0.74,0.74-0.74s0.74,0.33,0.74,0.74v4.48
			C267.22,490.82,266.89,491.15,266.48,491.15z M437.88,482.65c-0.41,0-0.74-0.33-0.74-0.74v-4.48c0-0.41,0.33-0.74,0.74-0.74
			c0.41,0,0.74,0.33,0.74,0.74v4.48C438.62,482.32,438.29,482.65,437.88,482.65z M266.48,482.2c-0.41,0-0.74-0.33-0.74-0.74v-4.48
			c0-0.41,0.33-0.74,0.74-0.74s0.74,0.33,0.74,0.74v4.48C267.22,481.86,266.89,482.2,266.48,482.2z M437.88,473.69
			c-0.41,0-0.74-0.33-0.74-0.74v-4.48c0-0.41,0.33-0.74,0.74-0.74c0.41,0,0.74,0.33,0.74,0.74v4.48
			C438.62,473.36,438.29,473.69,437.88,473.69z M266.48,473.24c-0.41,0-0.74-0.33-0.74-0.74v-4.48c0-0.41,0.33-0.74,0.74-0.74
			s0.74,0.33,0.74,0.74v4.48C267.22,472.91,266.89,473.24,266.48,473.24z M437.88,464.74c-0.41,0-0.74-0.33-0.74-0.74v-2.02
			c0-0.75-0.12-1.48-0.35-2.18c-0.13-0.39,0.08-0.81,0.47-0.94c0.39-0.13,0.81,0.08,0.94,0.47c0.29,0.85,0.43,1.74,0.43,2.65v2.02
			C438.62,464.4,438.29,464.74,437.88,464.74z M266.48,464.28c-0.41,0-0.74-0.33-0.74-0.74v-1.57c0-1.08,0.2-2.13,0.61-3.12
			c0.15-0.38,0.59-0.56,0.97-0.41c0.38,0.15,0.56,0.59,0.41,0.97c-0.33,0.81-0.5,1.68-0.5,2.56v1.57
			C267.22,463.95,266.89,464.28,266.48,464.28z M434.92,456.71c-0.16,0-0.32-0.05-0.45-0.15c-1.08-0.83-2.37-1.31-3.73-1.39
			c-0.41-0.03-0.72-0.38-0.69-0.79c0.02-0.41,0.38-0.72,0.79-0.69c1.65,0.1,3.22,0.69,4.54,1.7c0.32,0.25,0.39,0.71,0.14,1.04
			C435.36,456.61,435.14,456.71,434.92,456.71z M269.81,456.44c-0.24,0-0.47-0.11-0.61-0.33c-0.23-0.34-0.14-0.8,0.2-1.03
			c1.37-0.93,2.97-1.42,4.63-1.42c0,0,0,0,0,0c0.41,0,0.74,0.33,0.74,0.74c0,0.41-0.33,0.74-0.74,0.74c-1.36,0-2.68,0.41-3.8,1.17
			C270.1,456.4,269.95,456.44,269.81,456.44z M426.31,455.15h-4.48c-0.41,0-0.74-0.33-0.74-0.74c0-0.41,0.33-0.74,0.74-0.74h4.48
			c0.41,0,0.74,0.33,0.74,0.74C427.05,454.82,426.72,455.15,426.31,455.15z M417.35,455.15h-4.48c-0.41,0-0.74-0.33-0.74-0.74
			c0-0.41,0.33-0.74,0.74-0.74h4.48c0.41,0,0.74,0.33,0.74,0.74C418.09,454.82,417.76,455.15,417.35,455.15z M408.39,455.15h-4.48
			c-0.41,0-0.74-0.33-0.74-0.74c0-0.41,0.33-0.74,0.74-0.74h4.48c0.41,0,0.74,0.33,0.74,0.74
			C409.13,454.82,408.8,455.15,408.39,455.15z M399.44,455.15h-4.48c-0.41,0-0.74-0.33-0.74-0.74c0-0.41,0.33-0.74,0.74-0.74h4.48
			c0.41,0,0.74,0.33,0.74,0.74C400.18,454.82,399.84,455.15,399.44,455.15z M390.48,455.15H386c-0.41,0-0.74-0.33-0.74-0.74
			c0-0.41,0.33-0.74,0.74-0.74h4.48c0.41,0,0.74,0.33,0.74,0.74C391.22,454.82,390.89,455.15,390.48,455.15z M381.52,455.15h-4.48
			c-0.41,0-0.74-0.33-0.74-0.74c0-0.41,0.33-0.74,0.74-0.74h4.48c0.41,0,0.74,0.33,0.74,0.74
			C382.26,454.82,381.93,455.15,381.52,455.15z M372.56,455.15h-4.48c-0.41,0-0.74-0.33-0.74-0.74c0-0.41,0.33-0.74,0.74-0.74h4.48
			c0.41,0,0.74,0.33,0.74,0.74C373.3,454.82,372.97,455.15,372.56,455.15z M363.6,455.15h-4.48c-0.41,0-0.74-0.33-0.74-0.74
			c0-0.41,0.33-0.74,0.74-0.74h4.48c0.41,0,0.74,0.33,0.74,0.74C364.35,454.82,364.01,455.15,363.6,455.15z M354.65,455.15h-4.48
			c-0.41,0-0.74-0.33-0.74-0.74c0-0.41,0.33-0.74,0.74-0.74h4.48c0.41,0,0.74,0.33,0.74,0.74
			C355.39,454.82,355.06,455.15,354.65,455.15z M345.69,455.15h-4.48c-0.41,0-0.74-0.33-0.74-0.74c0-0.41,0.33-0.74,0.74-0.74h4.48
			c0.41,0,0.74,0.33,0.74,0.74C346.43,454.82,346.1,455.15,345.69,455.15z M336.73,455.15h-4.48c-0.41,0-0.74-0.33-0.74-0.74
			c0-0.41,0.33-0.74,0.74-0.74h4.48c0.41,0,0.74,0.33,0.74,0.74C337.47,454.82,337.14,455.15,336.73,455.15z M327.77,455.15h-4.48
			c-0.41,0-0.74-0.33-0.74-0.74c0-0.41,0.33-0.74,0.74-0.74h4.48c0.41,0,0.74,0.33,0.74,0.74
			C328.51,454.82,328.18,455.15,327.77,455.15z M318.82,455.15h-4.48c-0.41,0-0.74-0.33-0.74-0.74c0-0.41,0.33-0.74,0.74-0.74h4.48
			c0.41,0,0.74,0.33,0.74,0.74C319.56,454.82,319.23,455.15,318.82,455.15z M309.86,455.15h-4.48c-0.41,0-0.74-0.33-0.74-0.74
			c0-0.41,0.33-0.74,0.74-0.74h4.48c0.41,0,0.74,0.33,0.74,0.74C310.6,454.82,310.27,455.15,309.86,455.15z M300.9,455.15h-4.48
			c-0.41,0-0.74-0.33-0.74-0.74c0-0.41,0.33-0.74,0.74-0.74h4.48c0.41,0,0.74,0.33,0.74,0.74
			C301.64,454.82,301.31,455.15,300.9,455.15z M291.94,455.15h-4.48c-0.41,0-0.74-0.33-0.74-0.74c0-0.41,0.33-0.74,0.74-0.74h4.48
			c0.41,0,0.74,0.33,0.74,0.74C292.68,454.82,292.35,455.15,291.94,455.15z M282.98,455.15h-4.48c-0.41,0-0.74-0.33-0.74-0.74
			c0-0.41,0.33-0.74,0.74-0.74h4.48c0.41,0,0.74,0.33,0.74,0.74C283.73,454.82,283.39,455.15,282.98,455.15z"/>
	</g>
	<g>
		<path class="st6" d="M684.95,678.8h-4c-0.36,0-0.66-0.29-0.66-0.66c0-0.36,0.29-0.66,0.66-0.66h3.97c0.36,0,0.67,0.29,0.67,0.66
			C685.59,678.51,685.31,678.8,684.95,678.8z M676.99,678.8h-3.97c-0.36,0-0.66-0.29-0.66-0.66c0-0.36,0.29-0.66,0.66-0.66h3.97
			c0.36,0,0.66,0.29,0.66,0.66C677.64,678.51,677.35,678.8,676.99,678.8z M669.05,678.8h-3.97c-0.36,0-0.66-0.29-0.66-0.66
			c0-0.36,0.29-0.66,0.66-0.66h3.97c0.36,0,0.66,0.29,0.66,0.66C669.71,678.51,669.41,678.8,669.05,678.8z M661.12,678.8h-3.97
			c-0.36,0-0.66-0.29-0.66-0.66c0-0.36,0.29-0.66,0.66-0.66h3.97c0.36,0,0.66,0.29,0.66,0.66
			C661.77,678.51,661.48,678.8,661.12,678.8z M653.18,678.8h-3.97c-0.36,0-0.66-0.29-0.66-0.66c0-0.36,0.29-0.66,0.66-0.66h3.97
			c0.36,0,0.66,0.29,0.66,0.66C653.84,678.51,653.54,678.8,653.18,678.8z M645.24,678.8h-3.97c-0.36,0-0.66-0.29-0.66-0.66
			c0-0.36,0.29-0.66,0.66-0.66h3.97c0.36,0,0.66,0.29,0.66,0.66C645.9,678.51,645.61,678.8,645.24,678.8z M637.31,678.8h-3.97
			c-0.36,0-0.66-0.29-0.66-0.66c0-0.36,0.29-0.66,0.66-0.66h3.97c0.36,0,0.66,0.29,0.66,0.66
			C637.97,678.51,637.67,678.8,637.31,678.8z M629.37,678.8h-3.97c-0.36,0-0.66-0.29-0.66-0.66c0-0.36,0.29-0.66,0.66-0.66h3.97
			c0.36,0,0.66,0.29,0.66,0.66C630.03,678.51,629.74,678.8,629.37,678.8z M621.44,678.8h-3.97c-0.36,0-0.66-0.29-0.66-0.66
			c0-0.36,0.29-0.66,0.66-0.66h3.97c0.36,0,0.66,0.29,0.66,0.66C622.1,678.51,621.8,678.8,621.44,678.8z M613.5,678.8h-3.83
			c-0.06,0-0.11,0-0.17,0c-0.36-0.02-0.64-0.33-0.62-0.69c0.02-0.36,0.31-0.63,0.69-0.62c0.03,0,0.07,0,0.1,0h3.83
			c0.36,0,0.66,0.29,0.66,0.66C614.16,678.51,613.87,678.8,613.5,678.8z M687.52,676.29c-0.01,0-0.01,0-0.02,0
			c-0.36-0.01-0.65-0.32-0.64-0.68l0-0.06v-3.88c0-0.36,0.29-0.66,0.66-0.66s0.66,0.29,0.66,0.66l0,3.99
			C688.16,676.01,687.87,676.29,687.52,676.29z M607.07,676.18c-0.36,0-0.66-0.29-0.66-0.66v-3.97c0-0.36,0.29-0.66,0.66-0.66
			c0.36,0,0.66,0.29,0.66,0.66v3.97C607.73,675.89,607.44,676.18,607.07,676.18z M687.52,668.35c-0.36,0-0.66-0.29-0.66-0.66v-3.97
			c0-0.36,0.29-0.66,0.66-0.66s0.66,0.29,0.66,0.66v3.97C688.17,668.06,687.88,668.35,687.52,668.35z M607.07,668.25
			c-0.36,0-0.66-0.29-0.66-0.66v-3.97c0-0.36,0.29-0.66,0.66-0.66c0.36,0,0.66,0.29,0.66,0.66v3.97
			C607.73,667.95,607.44,668.25,607.07,668.25z M687.52,660.42c-0.36,0-0.66-0.29-0.66-0.66v-3.97c0-0.36,0.29-0.66,0.66-0.66
			s0.66,0.29,0.66,0.66v3.97C688.17,660.12,687.88,660.42,687.52,660.42z M607.07,660.31c-0.36,0-0.66-0.29-0.66-0.66v-3.87
			c0-0.04,0-0.08,0-0.13c0.01-0.36,0.31-0.65,0.68-0.63c0.36,0.01,0.64,0.32,0.63,0.68l0,0.07v3.87
			C607.73,660.02,607.44,660.31,607.07,660.31z M685.04,653.85c-0.01,0-0.02,0-0.03,0l-0.09,0h-3.85c-0.36,0-0.66-0.29-0.66-0.66
			c0-0.36,0.29-0.66,0.66-0.66h3.85c0.05,0,0.1,0,0.15,0c0.36,0.02,0.64,0.32,0.63,0.69C685.68,653.57,685.39,653.85,685.04,653.85z
			 M677.11,653.85h-3.97c-0.36,0-0.66-0.29-0.66-0.66c0-0.36,0.29-0.66,0.66-0.66h3.97c0.36,0,0.66,0.29,0.66,0.66
			C677.76,653.55,677.47,653.85,677.11,653.85z M669.17,653.85h-3.97c-0.36,0-0.66-0.29-0.66-0.66c0-0.36,0.29-0.66,0.66-0.66h3.97
			c0.36,0,0.66,0.29,0.66,0.66C669.83,653.55,669.53,653.85,669.17,653.85z M661.24,653.85h-3.97c-0.36,0-0.66-0.29-0.66-0.66
			c0-0.36,0.29-0.66,0.66-0.66h3.97c0.36,0,0.66,0.29,0.66,0.66C661.89,653.55,661.6,653.85,661.24,653.85z M653.3,653.85h-3.97
			c-0.36,0-0.66-0.29-0.66-0.66c0-0.36,0.29-0.66,0.66-0.66h3.97c0.36,0,0.66,0.29,0.66,0.66
			C653.96,653.55,653.66,653.85,653.3,653.85z M645.37,653.85h-3.97c-0.36,0-0.66-0.29-0.66-0.66c0-0.36,0.29-0.66,0.66-0.66h3.97
			c0.36,0,0.66,0.29,0.66,0.66C646.02,653.55,645.73,653.85,645.37,653.85z M637.43,653.85h-3.97c-0.36,0-0.66-0.29-0.66-0.66
			c0-0.36,0.29-0.66,0.66-0.66h3.97c0.36,0,0.66,0.29,0.66,0.66C638.09,653.55,637.79,653.85,637.43,653.85z M629.49,653.85h-3.97
			c-0.36,0-0.66-0.29-0.66-0.66c0-0.36,0.29-0.66,0.66-0.66h3.97c0.36,0,0.66,0.29,0.66,0.66
			C630.15,653.55,629.86,653.85,629.49,653.85z M621.56,653.85h-3.97c-0.36,0-0.66-0.29-0.66-0.66c0-0.36,0.29-0.66,0.66-0.66h3.97
			c0.36,0,0.66,0.29,0.66,0.66C622.22,653.55,621.92,653.85,621.56,653.85z M613.62,653.85h-3.95c-0.36,0-0.66-0.29-0.66-0.66
			c0-0.36,0.29-0.66,0.65-0.66h3.97c0.36,0,0.66,0.29,0.66,0.66C614.28,653.55,613.99,653.85,613.62,653.85z"/>
	</g>
	<g>
		<path class="st6" d="M401.55,442.02h-4.42c-0.41,0-0.74-0.33-0.74-0.74c0-0.41,0.33-0.74,0.74-0.74h4.39
			c0.41,0,0.76,0.33,0.76,0.74C402.28,441.69,401.96,442.02,401.55,442.02z M392.74,442.02h-4.39c-0.41,0-0.74-0.33-0.74-0.74
			c0-0.41,0.33-0.74,0.74-0.74h4.39c0.41,0,0.74,0.33,0.74,0.74C393.48,441.69,393.15,442.02,392.74,442.02z M383.96,442.02h-4.39
			c-0.41,0-0.74-0.33-0.74-0.74c0-0.41,0.33-0.74,0.74-0.74h4.39c0.41,0,0.74,0.33,0.74,0.74
			C384.7,441.69,384.37,442.02,383.96,442.02z M375.18,442.02h-4.39c-0.41,0-0.74-0.33-0.74-0.74c0-0.41,0.33-0.74,0.74-0.74h4.39
			c0.41,0,0.74,0.33,0.74,0.74C375.92,441.69,375.59,442.02,375.18,442.02z M366.4,442.02h-4.39c-0.41,0-0.74-0.33-0.74-0.74
			c0-0.41,0.33-0.74,0.74-0.74h4.39c0.41,0,0.74,0.33,0.74,0.74C367.14,441.69,366.81,442.02,366.4,442.02z M357.62,442.02h-4.39
			c-0.41,0-0.74-0.33-0.74-0.74c0-0.41,0.33-0.74,0.74-0.74h4.39c0.41,0,0.74,0.33,0.74,0.74
			C358.36,441.69,358.03,442.02,357.62,442.02z M348.84,442.02h-4.39c-0.41,0-0.74-0.33-0.74-0.74c0-0.41,0.33-0.74,0.74-0.74h4.39
			c0.41,0,0.74,0.33,0.74,0.74C349.58,441.69,349.24,442.02,348.84,442.02z M340.14,441.55c-0.12,0-0.25-0.03-0.36-0.1
			c-1.37-0.78-2.23-2.24-2.23-3.82v-0.54c0-0.41,0.33-0.74,0.74-0.74s0.74,0.33,0.74,0.74v0.54c0,1.04,0.57,2.01,1.47,2.53
			c0.36,0.2,0.48,0.65,0.28,1.01C340.65,441.41,340.39,441.55,340.14,441.55z M404.94,439.66c-0.09,0-0.17-0.02-0.26-0.05
			c-0.38-0.14-0.58-0.57-0.43-0.96c0.12-0.33,0.19-0.67,0.19-1.02v-3.08c0-0.41,0.33-0.74,0.74-0.74c0.41,0,0.74,0.33,0.74,0.74
			v3.08c0,0.53-0.09,1.05-0.28,1.55C405.52,439.47,405.24,439.66,404.94,439.66z M338.29,433.44c-0.41,0-0.74-0.33-0.74-0.74v-4.39
			c0-0.41,0.33-0.74,0.74-0.74s0.74,0.33,0.74,0.74v4.39C339.03,433.11,338.7,433.44,338.29,433.44z M405.17,430.9
			c-0.41,0-0.74-0.33-0.74-0.74v-4.39c0-0.41,0.33-0.74,0.74-0.74c0.41,0,0.74,0.33,0.74,0.74v4.39
			C405.91,430.57,405.58,430.9,405.17,430.9z M338.29,424.66c-0.41,0-0.74-0.33-0.74-0.74v-4.39c0-0.41,0.33-0.74,0.74-0.74
			s0.74,0.33,0.74,0.74v4.39C339.03,424.33,338.7,424.66,338.29,424.66z M405.17,422.12c-0.41,0-0.74-0.33-0.74-0.74v-4.39
			c0-0.41,0.33-0.74,0.74-0.74c0.41,0,0.74,0.33,0.74,0.74v4.39C405.91,421.79,405.58,422.12,405.17,422.12z M338.29,415.88
			c-0.41,0-0.74-0.33-0.74-0.74v-4.39c0-0.41,0.33-0.74,0.74-0.74s0.74,0.33,0.74,0.74v4.39
			C339.03,415.55,338.7,415.88,338.29,415.88z M405.17,413.34c-0.41,0-0.74-0.33-0.74-0.74v-4.39c0-0.41,0.33-0.74,0.74-0.74
			c0.41,0,0.74,0.33,0.74,0.74v4.39C405.91,413.01,405.58,413.34,405.17,413.34z M338.29,407.1c-0.41,0-0.74-0.33-0.74-0.74v-4.39
			c0-0.41,0.33-0.74,0.74-0.74s0.74,0.33,0.74,0.74v4.39C339.03,406.77,338.7,407.1,338.29,407.1z M405.17,404.56
			c-0.41,0-0.74-0.33-0.74-0.74v-4.39c0-0.41,0.33-0.74,0.74-0.74c0.41,0,0.74,0.33,0.74,0.74v4.39
			C405.91,404.23,405.58,404.56,405.17,404.56z M338.29,398.32c-0.41,0-0.74-0.33-0.74-0.74v-4.39c0-0.41,0.33-0.74,0.74-0.74
			s0.74,0.33,0.74,0.74v4.39C339.03,397.99,338.7,398.32,338.29,398.32z M405.17,395.78c-0.41,0-0.74-0.33-0.74-0.74v-4.39
			c0-0.41,0.33-0.74,0.74-0.74c0.41,0,0.74,0.33,0.74,0.74v4.39C405.91,395.45,405.58,395.78,405.17,395.78z M338.29,389.54
			c-0.41,0-0.74-0.33-0.74-0.74v-3.06c0-0.54,0.1-1.06,0.29-1.56c0.15-0.38,0.57-0.57,0.96-0.43c0.38,0.15,0.57,0.57,0.43,0.96
			c-0.13,0.33-0.19,0.68-0.19,1.03v3.06C339.03,389.21,338.7,389.54,338.29,389.54z M405.17,387c-0.41,0-0.74-0.33-0.74-0.74v-0.52
			c0-1.05-0.57-2.02-1.48-2.54c-0.36-0.2-0.48-0.65-0.28-1.01c0.2-0.36,0.65-0.48,1.01-0.28c1.38,0.78,2.24,2.24,2.24,3.83v0.52
			C405.91,386.67,405.58,387,405.17,387z M399,382.83h-4.39c-0.41,0-0.74-0.33-0.74-0.74c0-0.41,0.33-0.74,0.74-0.74H399
			c0.41,0,0.74,0.33,0.74,0.74C399.74,382.5,399.41,382.83,399,382.83z M390.22,382.83h-4.39c-0.41,0-0.74-0.33-0.74-0.74
			c0-0.41,0.33-0.74,0.74-0.74h4.39c0.41,0,0.74,0.33,0.74,0.74C390.96,382.5,390.62,382.83,390.22,382.83z M381.43,382.83h-4.39
			c-0.41,0-0.74-0.33-0.74-0.74c0-0.41,0.33-0.74,0.74-0.74h4.39c0.41,0,0.74,0.33,0.74,0.74
			C382.18,382.5,381.84,382.83,381.43,382.83z M372.65,382.83h-4.39c-0.41,0-0.74-0.33-0.74-0.74c0-0.41,0.33-0.74,0.74-0.74h4.39
			c0.41,0,0.74,0.33,0.74,0.74C373.39,382.5,373.06,382.83,372.65,382.83z M363.87,382.83h-4.39c-0.41,0-0.74-0.33-0.74-0.74
			c0-0.41,0.33-0.74,0.74-0.74h4.39c0.41,0,0.74,0.33,0.74,0.74C364.61,382.5,364.28,382.83,363.87,382.83z M355.09,382.83h-4.39
			c-0.41,0-0.74-0.33-0.74-0.74c0-0.41,0.33-0.74,0.74-0.74h4.39c0.41,0,0.74,0.33,0.74,0.74
			C355.83,382.5,355.5,382.83,355.09,382.83z M346.31,382.83h-4.38c-0.41,0-0.75-0.33-0.75-0.74c0-0.41,0.33-0.74,0.73-0.74h4.39
			c0.41,0,0.74,0.33,0.74,0.74C347.05,382.5,346.72,382.83,346.31,382.83z"/>
	</g>
	<g>
		<path class="st6" d="M684.95,715.42h-4c-0.36,0-0.66-0.29-0.66-0.66c0-0.36,0.29-0.66,0.66-0.66h3.97c0.36,0,0.67,0.29,0.67,0.66
			C685.59,715.13,685.31,715.42,684.95,715.42z M676.99,715.42h-3.97c-0.36,0-0.66-0.29-0.66-0.66c0-0.36,0.29-0.66,0.66-0.66h3.97
			c0.36,0,0.66,0.29,0.66,0.66C677.64,715.13,677.35,715.42,676.99,715.42z M669.05,715.42h-3.97c-0.36,0-0.66-0.29-0.66-0.66
			c0-0.36,0.29-0.66,0.66-0.66h3.97c0.36,0,0.66,0.29,0.66,0.66C669.71,715.13,669.41,715.42,669.05,715.42z M661.12,715.42h-3.97
			c-0.36,0-0.66-0.29-0.66-0.66c0-0.36,0.29-0.66,0.66-0.66h3.97c0.36,0,0.66,0.29,0.66,0.66
			C661.77,715.13,661.48,715.42,661.12,715.42z M653.18,715.42h-3.97c-0.36,0-0.66-0.29-0.66-0.66c0-0.36,0.29-0.66,0.66-0.66h3.97
			c0.36,0,0.66,0.29,0.66,0.66C653.84,715.13,653.54,715.42,653.18,715.42z M645.24,715.42h-3.97c-0.36,0-0.66-0.29-0.66-0.66
			c0-0.36,0.29-0.66,0.66-0.66h3.97c0.36,0,0.66,0.29,0.66,0.66C645.9,715.13,645.61,715.42,645.24,715.42z M637.31,715.42h-3.97
			c-0.36,0-0.66-0.29-0.66-0.66c0-0.36,0.29-0.66,0.66-0.66h3.97c0.36,0,0.66,0.29,0.66,0.66
			C637.97,715.13,637.67,715.42,637.31,715.42z M629.37,715.42h-3.97c-0.36,0-0.66-0.29-0.66-0.66c0-0.36,0.29-0.66,0.66-0.66h3.97
			c0.36,0,0.66,0.29,0.66,0.66C630.03,715.13,629.74,715.42,629.37,715.42z M621.44,715.42h-3.97c-0.36,0-0.66-0.29-0.66-0.66
			c0-0.36,0.29-0.66,0.66-0.66h3.97c0.36,0,0.66,0.29,0.66,0.66C622.1,715.13,621.8,715.42,621.44,715.42z M613.5,715.42h-3.83
			c-0.06,0-0.11,0-0.17,0c-0.36-0.02-0.64-0.33-0.62-0.69c0.02-0.36,0.31-0.65,0.69-0.62c0.03,0,0.07,0,0.1,0h3.83
			c0.36,0,0.66,0.29,0.66,0.66C614.16,715.13,613.87,715.42,613.5,715.42z M687.52,712.91c-0.01,0-0.01,0-0.02,0
			c-0.36-0.01-0.65-0.32-0.64-0.68l0-0.06v-3.88c0-0.36,0.29-0.66,0.66-0.66s0.66,0.29,0.66,0.66l0,3.99
			C688.16,712.63,687.87,712.91,687.52,712.91z M607.07,712.8c-0.36,0-0.66-0.29-0.66-0.66v-3.97c0-0.36,0.29-0.66,0.66-0.66
			c0.36,0,0.66,0.29,0.66,0.66v3.97C607.73,712.51,607.44,712.8,607.07,712.8z M687.52,704.97c-0.36,0-0.66-0.29-0.66-0.66v-3.97
			c0-0.36,0.29-0.66,0.66-0.66s0.66,0.29,0.66,0.66v3.97C688.17,704.68,687.88,704.97,687.52,704.97z M607.07,704.87
			c-0.36,0-0.66-0.29-0.66-0.66v-3.97c0-0.36,0.29-0.66,0.66-0.66c0.36,0,0.66,0.29,0.66,0.66v3.97
			C607.73,704.57,607.44,704.87,607.07,704.87z M687.52,697.04c-0.36,0-0.66-0.29-0.66-0.66v-3.97c0-0.36,0.29-0.66,0.66-0.66
			s0.66,0.29,0.66,0.66v3.97C688.17,696.74,687.88,697.04,687.52,697.04z M607.07,696.93c-0.36,0-0.66-0.29-0.66-0.66v-3.87
			c0-0.04,0-0.08,0-0.13c0.01-0.36,0.31-0.65,0.68-0.63c0.36,0.01,0.64,0.32,0.63,0.68l0,0.07v3.87
			C607.73,696.64,607.44,696.93,607.07,696.93z M685.04,690.47c-0.01,0-0.02,0-0.03,0l-0.09,0h-3.85c-0.36,0-0.66-0.29-0.66-0.66
			s0.29-0.66,0.66-0.66h3.85c0.05,0,0.1,0,0.15,0c0.36,0.02,0.64,0.32,0.63,0.69C685.68,690.19,685.39,690.47,685.04,690.47z
			 M677.11,690.46h-3.97c-0.36,0-0.66-0.29-0.66-0.66s0.29-0.66,0.66-0.66h3.97c0.36,0,0.66,0.29,0.66,0.66
			S677.47,690.46,677.11,690.46z M669.17,690.46h-3.97c-0.36,0-0.66-0.29-0.66-0.66s0.29-0.66,0.66-0.66h3.97
			c0.36,0,0.66,0.29,0.66,0.66S669.53,690.46,669.17,690.46z M661.24,690.46h-3.97c-0.36,0-0.66-0.29-0.66-0.66s0.29-0.66,0.66-0.66
			h3.97c0.36,0,0.66,0.29,0.66,0.66S661.6,690.46,661.24,690.46z M653.3,690.46h-3.97c-0.36,0-0.66-0.29-0.66-0.66
			s0.29-0.66,0.66-0.66h3.97c0.36,0,0.66,0.29,0.66,0.66S653.66,690.46,653.3,690.46z M645.37,690.46h-3.97
			c-0.36,0-0.66-0.29-0.66-0.66s0.29-0.66,0.66-0.66h3.97c0.36,0,0.66,0.29,0.66,0.66S645.73,690.46,645.37,690.46z M637.43,690.46
			h-3.97c-0.36,0-0.66-0.29-0.66-0.66s0.29-0.66,0.66-0.66h3.97c0.36,0,0.66,0.29,0.66,0.66S637.79,690.46,637.43,690.46z
			 M629.49,690.46h-3.97c-0.36,0-0.66-0.29-0.66-0.66s0.29-0.66,0.66-0.66h3.97c0.36,0,0.66,0.29,0.66,0.66
			S629.86,690.46,629.49,690.46z M621.56,690.46h-3.97c-0.36,0-0.66-0.29-0.66-0.66s0.29-0.66,0.66-0.66h3.97
			c0.36,0,0.66,0.29,0.66,0.66S621.92,690.46,621.56,690.46z M613.62,690.46h-3.95c-0.36,0-0.66-0.29-0.66-0.66s0.29-0.66,0.65-0.66
			h3.97c0.36,0,0.66,0.29,0.66,0.66S613.99,690.46,613.62,690.46z"/>
	</g>
	<g>
		<path class="st6" d="M371.83,687.83h-3.96c-0.36,0-0.66-0.29-0.66-0.66c0-0.36,0.29-0.66,0.66-0.66h3.93
			c0.36,0,0.67,0.29,0.67,0.66C372.48,687.54,372.2,687.83,371.83,687.83z M363.94,687.83h-3.93c-0.36,0-0.66-0.29-0.66-0.66
			c0-0.36,0.29-0.66,0.66-0.66h3.93c0.36,0,0.66,0.29,0.66,0.66C364.6,687.54,364.3,687.83,363.94,687.83z M356.07,687.83h-3.93
			c-0.36,0-0.66-0.29-0.66-0.66c0-0.36,0.29-0.66,0.66-0.66h3.93c0.36,0,0.66,0.29,0.66,0.66
			C356.73,687.54,356.44,687.83,356.07,687.83z M348.21,687.83h-3.93c-0.36,0-0.66-0.29-0.66-0.66c0-0.36,0.29-0.66,0.66-0.66h3.93
			c0.36,0,0.66,0.29,0.66,0.66C348.86,687.54,348.57,687.83,348.21,687.83z M340.34,687.83h-3.93c-0.36,0-0.66-0.29-0.66-0.66
			c0-0.36,0.29-0.66,0.66-0.66h3.93c0.36,0,0.66,0.29,0.66,0.66C341,687.54,340.7,687.83,340.34,687.83z M332.47,687.83h-3.93
			c-0.36,0-0.66-0.29-0.66-0.66c0-0.36,0.29-0.66,0.66-0.66h3.93c0.36,0,0.66,0.29,0.66,0.66
			C333.13,687.54,332.83,687.83,332.47,687.83z M324.61,687.83h-3.93c-0.36,0-0.66-0.29-0.66-0.66c0-0.36,0.29-0.66,0.66-0.66h3.93
			c0.36,0,0.66,0.29,0.66,0.66C325.26,687.54,324.97,687.83,324.61,687.83z M316.74,687.83h-3.93c-0.36,0-0.66-0.29-0.66-0.66
			c0-0.36,0.29-0.66,0.66-0.66h3.93c0.36,0,0.66,0.29,0.66,0.66C317.4,687.54,317.1,687.83,316.74,687.83z M308.87,687.83h-3.93
			c-0.36,0-0.66-0.29-0.66-0.66c0-0.36,0.29-0.66,0.66-0.66h3.93c0.36,0,0.66,0.29,0.66,0.66
			C309.53,687.54,309.23,687.83,308.87,687.83z M301,687.83h-3.93c-0.36,0-0.66-0.29-0.66-0.66c0-0.36,0.29-0.66,0.66-0.66H301
			c0.36,0,0.66,0.29,0.66,0.66C301.66,687.54,301.37,687.83,301,687.83z M293.14,687.83h-3.93c-0.36,0-0.66-0.29-0.66-0.66
			c0-0.36,0.29-0.66,0.66-0.66h3.93c0.36,0,0.66,0.29,0.66,0.66C293.79,687.54,293.5,687.83,293.14,687.83z M285.27,687.83h-3.93
			c-0.36,0-0.66-0.29-0.66-0.66c0-0.36,0.29-0.66,0.66-0.66h3.93c0.36,0,0.66,0.29,0.66,0.66
			C285.93,687.54,285.63,687.83,285.27,687.83z M277.4,687.83h-3.93c-0.36,0-0.66-0.29-0.66-0.66c0-0.36,0.29-0.66,0.66-0.66h3.93
			c0.36,0,0.66,0.29,0.66,0.66C278.06,687.54,277.77,687.83,277.4,687.83z M269.54,687.83h-3.93c-0.36,0-0.66-0.29-0.66-0.66
			c0-0.36,0.29-0.66,0.66-0.66h3.93c0.36,0,0.66,0.29,0.66,0.66C270.19,687.54,269.9,687.83,269.54,687.83z M261.67,687.83h-3.93
			c-0.36,0-0.66-0.29-0.66-0.66c0-0.36,0.29-0.66,0.66-0.66h3.93c0.36,0,0.66,0.29,0.66,0.66
			C262.33,687.54,262.03,687.83,261.67,687.83z M253.8,687.83h-3.14c-0.29,0-0.58-0.02-0.87-0.05c-0.36-0.04-0.62-0.37-0.58-0.73
			c0.04-0.36,0.37-0.62,0.73-0.58c0.23,0.03,0.47,0.04,0.71,0.04h3.14c0.36,0,0.66,0.29,0.66,0.66
			C254.46,687.54,254.17,687.83,253.8,687.83z M375.54,686.7c-0.21,0-0.42-0.1-0.55-0.29c-0.2-0.3-0.12-0.71,0.18-0.91
			c0.99-0.67,1.76-1.6,2.22-2.7c0.14-0.34,0.52-0.49,0.86-0.35c0.34,0.14,0.49,0.52,0.35,0.86c-0.56,1.34-1.49,2.48-2.7,3.29
			C375.79,686.66,375.67,686.7,375.54,686.7z M246.32,686.24c-0.15,0-0.3-0.05-0.43-0.16c-1.11-0.95-1.91-2.18-2.31-3.58
			c-0.1-0.35,0.1-0.71,0.45-0.81c0.35-0.1,0.71,0.1,0.81,0.45c0.33,1.15,0.98,2.16,1.9,2.94c0.28,0.24,0.31,0.65,0.07,0.93
			C246.69,686.16,246.51,686.24,246.32,686.24z M378.51,679.84c-0.36,0-0.66-0.29-0.66-0.66v-3.93c0-0.36,0.29-0.66,0.66-0.66
			c0.36,0,0.66,0.29,0.66,0.66v3.93C379.16,679.54,378.87,679.84,378.51,679.84z M243.96,679.07c-0.36,0-0.66-0.29-0.66-0.66v-3.93
			c0-0.36,0.29-0.66,0.66-0.66c0.36,0,0.66,0.29,0.66,0.66v3.93C244.62,678.78,244.33,679.07,243.96,679.07z M378.51,671.97
			c-0.36,0-0.66-0.29-0.66-0.66v-3.93c0-0.36,0.29-0.66,0.66-0.66c0.36,0,0.66,0.29,0.66,0.66v3.93
			C379.16,671.68,378.87,671.97,378.51,671.97z M243.96,671.2c-0.36,0-0.66-0.29-0.66-0.66v-3.93c0-0.36,0.29-0.66,0.66-0.66
			c0.36,0,0.66,0.29,0.66,0.66v3.93C244.62,670.91,244.33,671.2,243.96,671.2z M378.51,664.1c-0.36,0-0.66-0.29-0.66-0.66v-3.93
			c0-0.36,0.29-0.66,0.66-0.66c0.36,0,0.66,0.29,0.66,0.66v3.93C379.16,663.81,378.87,664.1,378.51,664.1z M243.96,663.34
			c-0.36,0-0.66-0.29-0.66-0.66v-3.93c0-0.36,0.29-0.66,0.66-0.66c0.36,0,0.66,0.29,0.66,0.66v3.93
			C244.62,663.04,244.33,663.34,243.96,663.34z M378.51,656.24c-0.36,0-0.66-0.29-0.66-0.66v-3.93c0-0.36,0.29-0.66,0.66-0.66
			c0.36,0,0.66,0.29,0.66,0.66v3.93C379.16,655.94,378.87,656.24,378.51,656.24z M243.96,655.47c-0.36,0-0.66-0.29-0.66-0.66v-3.93
			c0-0.36,0.29-0.66,0.66-0.66c0.36,0,0.66,0.29,0.66,0.66v3.93C244.62,655.17,244.33,655.47,243.96,655.47z M378.51,648.37
			c-0.36,0-0.66-0.29-0.66-0.66v-3.93c0-0.36,0.29-0.66,0.66-0.66c0.36,0,0.66,0.29,0.66,0.66v3.93
			C379.16,648.07,378.87,648.37,378.51,648.37z M243.96,647.6c-0.36,0-0.66-0.29-0.66-0.66v-3.93c0-0.36,0.29-0.66,0.66-0.66
			c0.36,0,0.66,0.29,0.66,0.66v3.93C244.62,647.31,244.33,647.6,243.96,647.6z M378.51,640.5c-0.36,0-0.66-0.29-0.66-0.66v-3.93
			c0-0.36,0.29-0.66,0.66-0.66c0.36,0,0.66,0.29,0.66,0.66v3.93C379.16,640.21,378.87,640.5,378.51,640.5z M243.96,639.74
			c-0.36,0-0.66-0.29-0.66-0.66v-3.93c0-0.36,0.29-0.66,0.66-0.66c0.36,0,0.66,0.29,0.66,0.66v3.93
			C244.62,639.44,244.33,639.74,243.96,639.74z M378.51,632.63c-0.36,0-0.66-0.29-0.66-0.66v-3.93c0-0.36,0.29-0.66,0.66-0.66
			c0.36,0,0.66,0.29,0.66,0.66v3.93C379.16,632.34,378.87,632.63,378.51,632.63z M243.96,631.87c-0.36,0-0.66-0.29-0.66-0.66v-3.93
			c0-0.36,0.29-0.66,0.66-0.66c0.36,0,0.66,0.29,0.66,0.66v3.93C244.62,631.57,244.33,631.87,243.96,631.87z M378.51,624.77
			c-0.36,0-0.66-0.29-0.66-0.66v-3.93c0-0.36,0.29-0.66,0.66-0.66c0.36,0,0.66,0.29,0.66,0.66v3.93
			C379.16,624.47,378.87,624.77,378.51,624.77z M243.96,624c-0.36,0-0.66-0.29-0.66-0.66v-3.93c0-0.36,0.29-0.66,0.66-0.66
			c0.36,0,0.66,0.29,0.66,0.66v3.93C244.62,623.71,244.33,624,243.96,624z M378.51,616.9c-0.36,0-0.66-0.29-0.66-0.66v-3.93
			c0-0.36,0.29-0.66,0.66-0.66c0.36,0,0.66,0.29,0.66,0.66v3.93C379.16,616.61,378.87,616.9,378.51,616.9z M243.96,616.13
			c-0.36,0-0.66-0.29-0.66-0.66v-3.93c0-0.36,0.29-0.66,0.66-0.66c0.36,0,0.66,0.29,0.66,0.66v3.93
			C244.62,615.84,244.33,616.13,243.96,616.13z M378.51,609.03c-0.36,0-0.66-0.29-0.66-0.66v-3.93c0-0.36,0.29-0.66,0.66-0.66
			c0.36,0,0.66,0.29,0.66,0.66v3.93C379.16,608.74,378.87,609.03,378.51,609.03z M243.96,608.27c-0.36,0-0.66-0.29-0.66-0.66v-3.93
			c0-0.36,0.29-0.66,0.66-0.66c0.36,0,0.66,0.29,0.66,0.66v3.93C244.62,607.97,244.33,608.27,243.96,608.27z M378.51,601.17
			c-0.36,0-0.66-0.29-0.66-0.66v-3.93c0-0.36,0.29-0.66,0.66-0.66c0.36,0,0.66,0.29,0.66,0.66v3.93
			C379.16,600.87,378.87,601.17,378.51,601.17z M243.96,600.4c-0.36,0-0.66-0.29-0.66-0.66v-3.93c0-0.36,0.29-0.66,0.66-0.66
			c0.36,0,0.66,0.29,0.66,0.66v3.93C244.62,600.11,244.33,600.4,243.96,600.4z M378.25,593.33c-0.29,0-0.55-0.19-0.63-0.48
			c-0.33-1.14-0.99-2.16-1.9-2.93c-0.28-0.23-0.31-0.65-0.08-0.93c0.23-0.28,0.65-0.31,0.93-0.08c1.11,0.94,1.91,2.18,2.31,3.57
			c0.1,0.35-0.1,0.71-0.45,0.81C378.37,593.32,378.31,593.33,378.25,593.33z M244.48,592.6c-0.08,0-0.17-0.02-0.25-0.05
			c-0.33-0.14-0.49-0.52-0.35-0.86c0.56-1.34,1.5-2.48,2.71-3.29c0.3-0.2,0.71-0.12,0.91,0.18c0.2,0.3,0.12,0.71-0.18,0.91
			c-0.99,0.67-1.76,1.6-2.22,2.7C244.98,592.45,244.73,592.6,244.48,592.6z M372.59,588.53c-0.03,0-0.05,0-0.08,0
			c-0.23-0.03-0.47-0.04-0.7-0.04h-3.15c-0.36,0-0.66-0.29-0.66-0.66s0.29-0.66,0.66-0.66h3.15c0.28,0,0.57,0.02,0.85,0.05
			c0.36,0.04,0.62,0.37,0.58,0.73C373.2,588.28,372.91,588.53,372.59,588.53z M364.72,588.48h-3.93c-0.36,0-0.66-0.29-0.66-0.66
			s0.29-0.66,0.66-0.66h3.93c0.36,0,0.66,0.29,0.66,0.66S365.08,588.48,364.72,588.48z M356.85,588.48h-3.93
			c-0.36,0-0.66-0.29-0.66-0.66s0.29-0.66,0.66-0.66h3.93c0.36,0,0.66,0.29,0.66,0.66S357.22,588.48,356.85,588.48z M348.99,588.48
			h-3.93c-0.36,0-0.66-0.29-0.66-0.66s0.29-0.66,0.66-0.66h3.93c0.36,0,0.66,0.29,0.66,0.66S349.35,588.48,348.99,588.48z
			 M341.12,588.48h-3.93c-0.36,0-0.66-0.29-0.66-0.66s0.29-0.66,0.66-0.66h3.93c0.36,0,0.66,0.29,0.66,0.66
			S341.48,588.48,341.12,588.48z M333.25,588.48h-3.93c-0.36,0-0.66-0.29-0.66-0.66s0.29-0.66,0.66-0.66h3.93
			c0.36,0,0.66,0.29,0.66,0.66S333.61,588.48,333.25,588.48z M325.39,588.48h-3.93c-0.36,0-0.66-0.29-0.66-0.66s0.29-0.66,0.66-0.66
			h3.93c0.36,0,0.66,0.29,0.66,0.66S325.75,588.48,325.39,588.48z M317.52,588.48h-3.93c-0.36,0-0.66-0.29-0.66-0.66
			s0.29-0.66,0.66-0.66h3.93c0.36,0,0.66,0.29,0.66,0.66S317.88,588.48,317.52,588.48z M309.65,588.48h-3.93
			c-0.36,0-0.66-0.29-0.66-0.66s0.29-0.66,0.66-0.66h3.93c0.36,0,0.66,0.29,0.66,0.66S310.01,588.48,309.65,588.48z M301.78,588.48
			h-3.93c-0.36,0-0.66-0.29-0.66-0.66s0.29-0.66,0.66-0.66h3.93c0.36,0,0.66,0.29,0.66,0.66S302.15,588.48,301.78,588.48z
			 M293.92,588.48h-3.93c-0.36,0-0.66-0.29-0.66-0.66s0.29-0.66,0.66-0.66h3.93c0.36,0,0.66,0.29,0.66,0.66
			S294.28,588.48,293.92,588.48z M286.05,588.48h-3.93c-0.36,0-0.66-0.29-0.66-0.66s0.29-0.66,0.66-0.66h3.93
			c0.36,0,0.66,0.29,0.66,0.66S286.41,588.48,286.05,588.48z M278.18,588.48h-3.93c-0.36,0-0.66-0.29-0.66-0.66s0.29-0.66,0.66-0.66
			h3.93c0.36,0,0.66,0.29,0.66,0.66S278.55,588.48,278.18,588.48z M270.32,588.48h-3.93c-0.36,0-0.66-0.29-0.66-0.66
			s0.29-0.66,0.66-0.66h3.93c0.36,0,0.66,0.29,0.66,0.66S270.68,588.48,270.32,588.48z M262.45,588.48h-3.93
			c-0.36,0-0.66-0.29-0.66-0.66s0.29-0.66,0.66-0.66h3.93c0.36,0,0.66,0.29,0.66,0.66S262.81,588.48,262.45,588.48z M254.58,588.48
			h-3.92c-0.36,0-0.66-0.29-0.66-0.66s0.29-0.66,0.65-0.66h3.93c0.36,0,0.66,0.29,0.66,0.66S254.95,588.48,254.58,588.48z"/>
	</g>
	<g>
		<path class="st0" d="M405.42,567.27H255.73c-5.99,0-10.85-4.86-10.85-10.85v-77.64c0-5.99,4.86-10.85,10.85-10.85h149.69
			c5.99,0,10.85,4.86,10.85,10.85v77.64C416.28,562.41,411.42,567.27,405.42,567.27z"/>
		<path class="st8" d="M311.24,497.89v39.41c0,2.46,2.74,3.94,4.8,2.59l29.95-19.71c1.86-1.22,1.86-3.95,0-5.17l-29.95-19.71
			C313.97,493.94,311.24,495.42,311.24,497.89z"/>
		<g>
			<path class="st6" d="M253.79,558.31c0-1.7,1.38-3.08,3.08-3.08c1.7,0,3.08,1.38,3.08,3.08c0,1.7-1.38,3.08-3.08,3.08
				C255.16,561.38,253.79,560.01,253.79,558.31z"/>
			<path class="st6" d="M396.82,559.13H257.69c-0.46,0-0.83-0.37-0.83-0.83l0,0c0-0.46,0.37-0.83,0.83-0.83h139.13
				c0.46,0,0.83,0.37,0.83,0.83l0,0C397.65,558.76,397.28,559.13,396.82,559.13z"/>
		</g>
	</g>
	<rect x="405.17" y="587.83" class="st0" width="88.68" height="132.37"/>
	<g>
		<g>
			<g>
				<path class="st6" d="M458.02,630.36h-1.21v-5.45c0-1.96,1.59-3.55,3.55-3.55h15c1.06,0,1.99-0.72,2.26-1.74l2.37-9.02
					c0.19-0.71,0.04-1.44-0.41-2.02c-0.45-0.58-1.12-0.91-1.85-0.91h-19.58v-1.21h19.58c1.11,0,2.13,0.5,2.81,1.38
					c0.68,0.88,0.9,2,0.62,3.07l-2.37,9.02c-0.41,1.56-1.82,2.65-3.43,2.65h-15c-1.29,0-2.33,1.05-2.33,2.33V630.36z"/>
			</g>
			<path class="st8" d="M471.17,612.17h-23.88c-2.7,0-4.89-2.19-4.89-4.89v-0.45c0-2.7,2.19-4.89,4.89-4.89h23.87
				c2.7,0,4.89,2.19,4.89,4.89v0.45C476.06,609.98,473.87,612.17,471.17,612.17z"/>
			<path class="st6" d="M457.41,653L457.41,653c-1.84,0-3.34-1.49-3.34-3.34v-20.22c0-1.84,1.49-3.34,3.34-3.34l0,0
				c1.84,0,3.34,1.49,3.34,3.34v20.22C460.75,651.5,459.25,653,457.41,653z"/>
		</g>
		<g>
			<path class="st5" d="M585.07,696.84c0,0,2.3,7.07,2.1,8.68c-0.2,1.62-1.64,7.14-2.67,8.55c-1.03,1.41-1.54-5.76-2.35-6.84
				c-0.81-1.08-0.17,2.7-0.74,3.05c-0.57,0.35-1.77-2.78-2.29-3.88c-0.52-1.1,1.26-5.18,1.26-8.01
				C580.39,695.55,585.07,696.84,585.07,696.84z"/>
			<path class="st7" d="M531.09,640.69c-0.64-8.1,8.17-13.66,15.12-9.45c0.14,0.09,0.28,0.17,0.42,0.26
				c10.41,6.7,32.86,37.96,34.41,41.09c1.54,3.13,6.11,28.04,6.11,28.04s-5.64,2.06-8.27-0.08c0,0-9.14-23.63-10.49-24.81
				c-1.35-1.18-36.57-20.94-36.87-28.35C531.44,645.45,531.28,643.1,531.09,640.69z"/>
		</g>
		<g>
			<path class="st6" d="M593.93,823.65c0,0,4.2,3.83,3.38,6.55c-0.82,2.72-4.61,4.53-5.12,7.86c-0.51,3.33-2.56,5.14-4.4,5.14
				c-1.84,0-8.78,0-8.78,0s-1.36-2.34,1.92-3.05c3.27-0.71,4.51-4.61,4.3-8.24c-0.2-3.63,0.31-8.46,0.31-8.46l6.96-1.61
				L593.93,823.65z"/>
			<path class="st6" d="M542.45,833.56c0,0,0.75,8.72-1.09,9.62l-23.58-0.05c0,0,0-2.72,3.79-3.33c3.79-0.6,10.44-2.82,11.57-7.76
				C534.27,827.11,542.45,833.56,542.45,833.56z"/>
			<path class="st8" d="M522.55,710.45c0,0,1.24,15.28,2.71,33.64c1.99,24.94,4.38,55.59,4.61,61.39c0.41,10.08,2.05,26.2,2.05,26.2
				s3.89,3.83,11.67,2.22c0,0,6.93-23.02,8.91-47.37c0.03-0.4,0.06-0.8,0.09-1.2c1.84-24.79,4.71-76.99,4.71-76.99L522.55,710.45z"
				/>
			<path class="st2" d="M522.55,710.45c0,0,1.24,15.28,2.71,33.64l27.24,42.44c0.03-0.4,0.06-0.8,0.09-1.2
				c1.84-24.79,4.71-76.99,4.71-76.99L522.55,710.45z"/>
			<path class="st8" d="M528.23,712.26c0,0,22.41,55.33,37.15,81.33c14.74,26,19.34,33.26,19.34,33.26s8.44-3.33,9.21-5.59
				c0,0-5.64-50.19-15.51-62.43c-5.58-6.91-12.13-27.66-12.44-34.92c-0.31-7.26-2-21.62-2-21.62L528.23,712.26z"/>
		</g>
		<path class="st5" d="M547.55,629.27c0,0-15.02,7.62-23.81,5.08c0,0,2.1-2.76,5.82-4.85c-0.34-1.75-0.6-3.27-0.76-4.55
			c-0.43-2.97-0.46-4.66-0.46-4.66l5.76-4.72l5.46-4.51C539.37,623.44,547.55,629.27,547.55,629.27z"/>
		<path class="st6" d="M562.47,706.66c-6.06,3.67-11.8,6.43-18.52,7.98c-7.92,1.88-17.66,1.32-20.92,1.82
			c-0.34,0.05-0.65-0.04-0.95-0.24c-0.26-0.13-1.69-9.8-3.13-22c-0.06-0.49-0.13-0.99-0.16-1.48l-0.02-0.16
			c-0.56-4.77-1.05-9.78-1.48-14.8c-0.35-3.91-0.63-7.77-0.83-11.4c-0.25-4.54-0.35-8.71-0.25-12.14c0.05-1.57,0.14-2.98,0.28-4.2
			c0.86-7.13,4.26-12.22,7.46-16.01l2.66-3.02c3.08,0.19,6.22-0.39,9.19-2.34c3.24-2.13,6.74-4.43,7.4-4.05
			c4.97,2.72,9.02,9.77,11.91,19.07c1.66,5.36,2.93,11.43,3.74,17.87c0.26,2,0.48,4.05,0.65,6.09c0.03,0.38,0.06,0.76,0.09,1.13
			c0.39,5.58,1.03,10.81,1.73,15.48c0.95,6.3,2.03,11.57,2.8,15.29c0.38,1.89,0.68,3.35,0.85,4.4
			C565.12,704.85,563.29,706.16,562.47,706.66z"/>
		<path class="st9" d="M539.75,615.78c0,0-3.69,7.06-10.95,9.16c-0.43-2.97-0.46-4.66-0.46-4.66l5.76-4.72L539.75,615.78z"/>
		<path class="st5" d="M525.67,620.13c0,0,14.51,2.08,15.69-6.84c1.18-8.92,3.85-14.66-5.37-16.36c-9.22-1.7-11.47,1.47-12.6,4.35
			C522.27,604.16,521.92,619.36,525.67,620.13z"/>
		<path class="st4" d="M546.27,595.66c0.13-0.15,0.43-0.28,1.1-0.33c0,0-0.55-0.33-1.27-0.33c-0.16-0.93-0.69-2.58-2.31-2.95
			c0,0,0.88,0.44,1.01,1.44c-1.91-1.88-5.94-3.2-17.01-2.1c-14.59,1.44-9.59,10.7-7.67,11.78c1.91,1.08,6.61-2.07,10.14-1.86
			c3.53,0.21,4.3,5.29,5.51,5.96c1.21,0.68,0.71-0.55,2.32-1.31c1.6-0.76,1.81,1.91,1.38,3.67c-0.43,1.75,1.84,4.01,1.84,4.01
			s0,0,2.2-2.46c2.2-2.46,4.11-12.75,3.05-14.91C546.46,596.05,546.37,595.85,546.27,595.66z"/>
		<path class="st7" d="M541.66,655.03c0,0-12.24,9.31-25.21,11.35c-0.25-4.54-0.35-8.71-0.25-12.14L541.66,655.03z"/>
		<g>
			<path class="st5" d="M466.52,643.02c-0.19-0.21-2.69-8.55-7-7.94c-2.82,0.4-7.42,2.03-6.19,5.74c0.48,1.46,9.06,6.48,9.06,6.48
				L466.52,643.02z"/>
			<path class="st6" d="M543.18,637.04c6.98,4.17,6.41,14.57-1.05,17.8c-0.15,0.07-0.31,0.13-0.46,0.19
				c-11.49,4.61-49.98,4.82-53.42,4.27c-3.45-0.55-26.4-11.25-26.4-11.25s1.58-5.79,4.85-6.7c0,0,24.56,6.22,26.3,5.8
				c1.75-0.42,38.24-17.69,44.46-13.65C539.1,634.57,541.11,635.8,543.18,637.04z"/>
		</g>
	</g>
	<g>
		<path class="st3" d="M802.09,363.22h-30.64c-1.29,0-2.34-1.05-2.34-2.34l0,0c0-1.29,1.05-2.34,2.34-2.34h30.64
			c1.29,0,2.34,1.05,2.34,2.34l0,0C804.44,362.17,803.38,363.22,802.09,363.22z"/>
		<path class="st3" d="M802.09,372.37h-30.64c-1.29,0-2.34-1.05-2.34-2.34l0,0c0-1.29,1.05-2.34,2.34-2.34h30.64
			c1.29,0,2.34,1.05,2.34,2.34l0,0C804.44,371.31,803.38,372.37,802.09,372.37z"/>
		<path class="st3" d="M802.09,381.75h-30.64c-1.29,0-2.34-1.05-2.34-2.34l0,0c0-1.29,1.05-2.34,2.34-2.34h30.64
			c1.29,0,2.34,1.05,2.34,2.34l0,0C804.44,380.7,803.38,381.75,802.09,381.75z"/>
	</g>
	<path class="st3" d="M682.12,602.66h-72.94c-1.71,0-3.1-1.4-3.1-3.1l0,0c0-1.71,1.4-3.1,3.1-3.1h72.94c1.71,0,3.1,1.4,3.1,3.1l0,0
		C685.22,601.26,683.83,602.66,682.12,602.66z"/>
	<path class="st3" d="M325.58,389.56h-72.94c-1.71,0-3.1-1.4-3.1-3.1l0,0c0-1.71,1.4-3.1,3.1-3.1h72.94c1.71,0,3.1,1.4,3.1,3.1l0,0
		C328.69,388.16,327.29,389.56,325.58,389.56z"/>
	<path class="st3" d="M682.12,633.46h-72.94c-1.71,0-3.1-1.4-3.1-3.1l0,0c0-1.71,1.4-3.1,3.1-3.1h72.94c1.71,0,3.1,1.4,3.1,3.1l0,0
		C685.22,632.06,683.83,633.46,682.12,633.46z"/>
	<path class="st3" d="M682.12,618.06h-87.23c-1.71,0-3.1-1.4-3.1-3.1l0,0c0-1.71,1.4-3.1,3.1-3.1h87.23c1.71,0,3.1,1.4,3.1,3.1l0,0
		C685.22,616.66,683.83,618.06,682.12,618.06z"/>
	<g>
		<path class="st3" d="M303.33,409.08h-39.95c-1.63,0-2.97-1.34-2.97-2.97v-0.27c0-1.63,1.34-2.97,2.97-2.97h39.95
			c1.63,0,2.97,1.34,2.97,2.97v0.27C306.29,407.75,304.96,409.08,303.33,409.08z"/>
		<path class="st3" d="M246.78,405.98c0-1.71,1.39-3.1,3.1-3.1c1.71,0,3.1,1.39,3.1,3.1c0,1.71-1.39,3.1-3.1,3.1
			C248.17,409.08,246.78,407.69,246.78,405.98z"/>
	</g>
	<g>
		<path class="st3" d="M311.34,421.44h-47.96c-1.63,0-2.97-1.34-2.97-2.97v-0.27c0-1.63,1.34-2.97,2.97-2.97h47.96
			c1.63,0,2.97,1.34,2.97,2.97v0.27C314.31,420.1,312.97,421.44,311.34,421.44z"/>
		<path class="st3" d="M246.78,418.33c0-1.71,1.39-3.1,3.1-3.1c1.71,0,3.1,1.39,3.1,3.1s-1.39,3.1-3.1,3.1
			C248.17,421.44,246.78,420.05,246.78,418.33z"/>
	</g>
	<g>
		<path class="st3" d="M303.33,434.85h-39.95c-1.63,0-2.97-1.34-2.97-2.97v-0.27c0-1.63,1.34-2.97,2.97-2.97h39.95
			c1.63,0,2.97,1.34,2.97,2.97v0.27C306.29,433.51,304.96,434.85,303.33,434.85z"/>
		<path class="st3" d="M246.78,431.74c0-1.71,1.39-3.1,3.1-3.1c1.71,0,3.1,1.39,3.1,3.1c0,1.71-1.39,3.1-3.1,3.1
			C248.17,434.85,246.78,433.46,246.78,431.74z"/>
	</g>
	<g>
		<g>
			<path class="st6" d="M378.8,416.03c-0.54,0.07-1.09,0.11-1.64,0.1c-2.93-0.03-5.66-1.2-7.71-3.3
				c-4.22-4.32-4.14-11.27,0.18-15.49v0c4.32-4.22,11.27-4.14,15.49,0.18c4.22,4.32,4.14,11.27-0.18,15.49
				C383.24,414.68,381.1,415.72,378.8,416.03z M370.89,398.64c-3.61,3.53-3.68,9.33-0.15,12.94c1.71,1.75,3.99,2.73,6.44,2.75
				c2.44,0.03,4.75-0.9,6.5-2.6c3.61-3.53,3.68-9.33,0.15-12.94C380.3,395.18,374.49,395.11,370.89,398.64L370.89,398.64z"/>
		</g>
		
			<rect x="363.84" y="409.96" transform="matrix(0.6989 0.7153 -0.7153 0.6989 408.4114 -135.1821)" class="st6" width="1.8" height="14.95"/>
		<path class="st6" d="M355.68,426.29L355.68,426.29c-0.62-0.64-0.61-1.66,0.03-2.28l6.3-6.15c0.64-0.62,1.66-0.61,2.28,0.03l0,0
			c0.62,0.64,0.61,1.66-0.03,2.28l-6.3,6.15C357.33,426.93,356.31,426.92,355.68,426.29z"/>
	</g>
	<g>
		<path class="st6" d="M777.51,843.41L777.51,843.41c-1.4,0.01-2.86-1-3.28-2.26L690.08,584.9c-0.41-1.25,0.39-2.28,1.78-2.28l0,0
			c1.4-0.01,2.86,1,3.27,2.26l84.16,256.25C779.71,842.38,778.91,843.4,777.51,843.41z"/>
		<path class="st6" d="M845.34,843.02L845.34,843.02c-1.4,0.01-2.86-1-3.27-2.26l-84.16-256.25c-0.41-1.25,0.39-2.28,1.78-2.28l0,0
			c1.4-0.01,2.86,1,3.27,2.26l84.16,256.25C847.54,841.98,846.74,843.01,845.34,843.02z"/>
		<path class="st6" d="M772.31,620.22l-68.11,0.39c-1.31,0.01-2.7-0.95-3.09-2.13l0,0c-0.39-1.18,0.37-2.15,1.68-2.16l68.11-0.39
			c1.31-0.01,2.7,0.95,3.09,2.13l0,0C774.38,619.24,773.62,620.21,772.31,620.22z"/>
		<path class="st6" d="M787,664.96l-68.11,0.39c-1.31,0.01-2.7-0.95-3.09-2.13l0,0c-0.39-1.18,0.37-2.15,1.68-2.16l68.11-0.39
			c1.31-0.01,2.7,0.95,3.09,2.13l0,0C789.07,663.98,788.32,664.95,787,664.96z"/>
		<path class="st6" d="M801.16,708.05l-68.11,0.39c-1.31,0.01-2.7-0.95-3.09-2.13l0,0c-0.39-1.18,0.37-2.15,1.68-2.16l68.11-0.39
			c1.31-0.01,2.7,0.95,3.09,2.13l0,0C803.23,707.07,802.47,708.04,801.16,708.05z"/>
		<path class="st6" d="M817.09,756.56l-68.11,0.39c-1.31,0.01-2.7-0.95-3.09-2.13l0,0c-0.39-1.18,0.37-2.15,1.68-2.16l68.11-0.39
			c1.31-0.01,2.7,0.95,3.09,2.13l0,0C819.16,755.58,818.4,756.55,817.09,756.56z"/>
		<path class="st6" d="M833.76,807.33l-68.11,0.39c-1.31,0.01-2.7-0.95-3.09-2.13l0,0c-0.39-1.18,0.37-2.15,1.68-2.16l68.11-0.39
			c1.31-0.01,2.7,0.95,3.09,2.13l0,0C835.83,806.35,835.08,807.32,833.76,807.33z"/>
	</g>
	<g>
		<path class="st6" d="M687.14,467.54L687.14,467.54c-0.53,0.1-1.05-0.25-1.16-0.78l-1.09-5.63c-0.1-0.53,0.25-1.05,0.78-1.16l0,0
			c0.53-0.1,1.05,0.25,1.16,0.78l1.09,5.63C688.03,466.92,687.67,467.44,687.14,467.54z"/>
		
			<rect x="684.28" y="450.4" transform="matrix(0.9818 -0.19 0.19 0.9818 -73.8998 138.3773)" class="st6" width="0.68" height="8.29"/>
		<path class="st5" d="M684.17,404.6c0,0-0.64-5.61-2-7.75c-1.36-2.14-6.49-3.52-6.82-3.2c-1.01,0.97,2.97,4.42,3.13,5.69
			c0.16,1.27-2.02,0.39-0.97,2.86c0.88,2.09,3.79,4.8,3.79,4.8L684.17,404.6z"/>
		<path class="st2" d="M681.7,403.98c1.87-1.47,2.27-1.44,2.27-1.44s17.32,15,19.01,16.34c1.69,1.34,27.7,8.88,27.7,8.88l4.13,21.15
			c0,0-35.2-17-39.4-20.47c-6.95-5.73-15.72-21.78-15.72-21.78S680.23,405.13,681.7,403.98z"/>
		<path class="st3" d="M731.23,607.2c0,0-0.3,7.23-1.69,8.98l-19.31,0.11c0.13-0.75,0.22-2.47,2.89-2.93
			c3.37-0.59,7.33-2.94,9.38-7.4C724.65,601.27,731.23,607.2,731.23,607.2z"/>
		<path class="st3" d="M769.11,606.16c0,0,1.35,9.6-0.48,9.77c-0.24,0.02-7.78,0.14-11.04,0.2c-3.84,0.06-10.14-0.07-10.14-0.07
			c-0.79,0.03-1.31-0.83-0.91-1.51c0.44-0.75,1.29-1.55,2.9-1.86c3.36-0.65,8.96-3.12,10.93-7.61
			C762.43,600.35,769.11,606.16,769.11,606.16z"/>
		<path class="st7" d="M721.19,507.77c0,0,5.37,18.78,20.75,51.4c15.39,32.62,16.05,48.34,16.05,48.34s2.33,0.82,5.42,0.49
			c3.34-0.36,5.7-1.85,5.7-1.85s-1-38.83-8.26-55.29c-7.27-16.46-8.75-61.51-8.75-61.51L721.19,507.77z"/>
		<path class="st6" d="M712.57,491.61c0,0-0.43,29.09,4.6,64.8c5.03,35.71,2.68,52.32,2.68,52.32s1.33,0.97,5.44,0.96
			c4.8-0.02,7.26-2,7.26-2s7.2-35.73,5.14-53.6c-2.07-17.88,9.86-61.34,9.86-61.34L712.57,491.61z"/>
		<path class="st5" d="M736.35,423.55l-5.68,4.21l-8.22-1.73c0.11-0.75,0.66-3.85,1.15-6.67c0.03-0.17,0.06-0.33,0.09-0.49
			c0.42-2.39,0.79-4.45,0.79-4.45l7.67-3.82l2.86-1.43c-0.01,0.05-0.22,2.66-0.25,3.04C734.23,418.96,736.35,423.55,736.35,423.55z"
			/>
		<path class="st8" d="M752.64,495.2c-1.86,8.5-41.64,4.77-41.12-0.42c0.02-0.17,0.12-2.58,0.27-5.81c0.3-7,0.76-17.95,0.82-18.8
			c0-0.01,0-0.03,0-0.04c0.72-7.23,1.4-14.29,1.45-18.91c0.04-4,0.59-8.1,1.32-11.81c0.68-3.43,1.51-6.54,2.23-8.97
			c0.51-1.71,1.46-3.21,2.71-4.39c0.89-0.84,1.94-1.52,3.1-1.98c0.32-0.13,0.64-0.24,0.96-0.34c4.68-1.36,11.16-3.04,12.92-2.53
			c4.75,1.4,8.29,9.77,10.79,20.44C752.77,461.61,753.85,489.66,752.64,495.2z"/>
		<path class="st9" d="M734.19,412.32c-1.68,3.22-7.96,6.01-10.58,7.04c0.03-0.17,0.06-0.33,0.09-0.49
			c0.42-2.39,0.79-4.45,0.79-4.45l7.67-3.82C733.85,410.57,734.88,411,734.19,412.32z"/>
		<path class="st5" d="M720.75,413.97c0,0,13.84,4.32,16.4-4.34c2.56-8.66,6.07-13.94-2.67-17.06c-8.73-3.12-11.43-0.33-12.99,2.36
			C719.94,397.6,717.22,412.62,720.75,413.97z"/>
		<path class="st4" d="M722.04,394.08c0,0,0.88,10.08,2.97,9.64c2.08-0.44,3.98-0.76,3.67,2.28c-0.31,3.04-3.2,6.55,3.23,7.09
			c6.42,0.54,15.66-16.03,13.9-19.17C740.71,384.87,714.68,383.04,722.04,394.08z"/>
		<path class="st2" d="M711.78,488.97c0.3-7,0.76-17.95,0.82-18.8c0-0.01,0-0.03,0-0.04l23.5-14.05
			C736.11,456.07,737.02,488.88,711.78,488.97z"/>
		<path class="st5" d="M693.1,459.57c0,0-4.78-3.23-5.68-3.51c-0.91-0.28-3.88-0.59-4.01-0.35c-0.14,0.23-0.54,0.95-0.03,1.19
			c0.52,0.24,1.17,0.16,0.97,0.33c-0.19,0.17-2.15-0.76-2.6,0.24c-0.45,1-0.85,4.41,1.44,5.44c2.29,1.03,7.95,0.1,8.35,0.22
			C695.01,464.12,693.1,459.57,693.1,459.57z"/>
		<path class="st8" d="M693.06,458.69c0,0,23.31,3.96,25.38,2.96c3.3-1.61-1.28-25.26-1.28-25.26s-0.2-5.36,6.06-6.62
			c5.44-1.1,10.69,2.98,10.69,2.98s4.77,4.27,4.16,9.01c-1.35,10.5-3.46,31.87-10.48,35.14c-9.06,4.22-35.28-11.71-35.28-11.71
			s-0.87-1.07-0.75-3.05C691.68,460.38,693.06,458.69,693.06,458.69z"/>
		<path class="st5" d="M677.39,401.92c0,0-1.49-2.97-1.73-3.52c-0.24-0.56,0.34-0.44,0.92-0.13c0.57,0.31,1.36,2.03,2.24,1.82
			C679.53,399.93,677.39,401.92,677.39,401.92z"/>
	</g>
</g>
</svg>
